<svg width="55" height="55" viewBox="0 0 55 55" fill="none" xmlns="http://www.w3.org/2000/svg">
<rect width="55" height="55" rx="14" fill="url(#paint0_linear_4413_15286)"/>
<path d="M31.4658 32.1713C30.6256 32.6366 29.6702 32.8824 28.7038 32.8824C25.5529 32.8824 22.9898 30.3192 22.9898 27.1684C22.9898 24.0178 25.5529 21.4544 28.7038 21.4544C31.8543 21.4544 34.4178 24.0178 34.4178 27.1684C34.4178 28.3426 34.0641 29.4705 33.3952 30.4306L33.0457 30.932L34.0296 32.5373L31.7842 31.9952L31.4658 32.1713ZM35.264 30.9739C35.9345 29.8213 36.2872 28.5129 36.2872 27.1684C36.2872 25.1429 35.4984 23.2385 34.066 21.8062C32.6336 20.3738 30.7293 19.5849 28.7038 19.5849C26.6783 19.5849 24.7736 20.3738 23.3416 21.8062C21.9092 23.2385 21.1204 25.1429 21.1204 27.1684C21.1204 29.1942 21.9092 31.0985 23.3416 32.5309C24.7739 33.963 26.6783 34.7518 28.7038 34.7518C29.858 34.7518 31.0065 34.4857 32.0393 33.9798L37.986 35.415L35.264 30.9739Z" fill="white"/>
<path d="M39.2837 22.5798C38.6997 21.1991 37.8643 19.9595 36.7998 18.8954C35.7357 17.831 34.4962 16.9955 33.1155 16.4116C31.6856 15.8067 30.1676 15.5 28.603 15.5C27.0386 15.5 25.5203 15.8067 24.0905 16.4116C22.7101 16.9955 21.4706 17.831 20.4062 18.8954C19.342 19.9595 18.5063 21.1991 17.9224 22.5798C17.3176 24.0096 17.011 25.5276 17.011 27.0923C17.011 29.2358 17.5967 31.3161 18.7077 33.132L14.8047 39.5L23.3641 37.4345C24.9786 38.2525 26.7852 38.6842 28.603 38.6842C30.1676 38.6842 31.6856 38.3775 33.1155 37.7726C33.8171 37.4761 34.4914 37.1088 35.1194 36.6812L36.1585 35.9736L33.3841 35.304L33.1941 35.4093C31.796 36.1845 30.2082 36.594 28.603 36.594C26.9958 36.594 25.4074 36.1852 24.0096 35.4116L23.6537 35.2146L19.2282 36.2825L21.1924 33.0778L20.8016 32.517C19.6891 30.9203 19.101 29.0445 19.101 27.0923C19.101 21.8528 23.3638 17.5902 28.603 17.5902C33.8424 17.5902 38.105 21.8528 38.105 27.0923C38.105 28.556 37.7691 29.9884 37.1268 31.2882L38.3768 33.3277C38.7267 32.7802 39.0309 32.2027 39.2837 31.6048C39.8885 30.1749 40.1952 28.6566 40.1952 27.0923C40.1952 25.5276 39.8885 24.0093 39.2837 22.5798Z" fill="white"/>
<path d="M37.6353 34.4086L37.6939 34.3243L37.5642 34.2929L37.6353 34.4086Z" fill="white"/>
<path fill-rule="evenodd" clip-rule="evenodd" d="M34.8047 27C34.8047 28.3557 34.3896 29.6145 33.6797 30.6562L35.3047 33.5L31.9506 32.382C30.9109 33.0877 29.656 33.5 28.3047 33.5C24.7148 33.5 21.8047 30.5899 21.8047 27C21.8047 23.4101 24.7148 20.5 28.3047 20.5C31.8945 20.5 34.8047 23.4101 34.8047 27ZM27.6123 27.1684C27.6123 26.5667 28.102 26.0773 28.7037 26.0773C29.3054 26.0773 29.7948 26.5667 29.7948 27.1684C29.7948 27.7701 29.3054 28.2598 28.7037 28.2598C28.102 28.2598 27.6123 27.7701 27.6123 27.1684ZM31.6389 26.0773C31.0373 26.0773 30.5479 26.5667 30.5479 27.1684C30.5479 27.7701 31.0373 28.2598 31.6389 28.2598C32.2406 28.2598 32.7304 27.7701 32.7304 27.1684C32.7304 26.5667 32.2406 26.0773 31.6389 26.0773ZM24.6777 27.1684C24.6777 26.5667 25.1671 26.0773 25.7688 26.0773C26.3708 26.0773 26.8602 26.5667 26.8602 27.1684C26.8602 27.7701 26.3708 28.2598 25.7688 28.2598C25.1671 28.2598 24.6777 27.7701 24.6777 27.1684Z" fill="white"/>
<defs>
<linearGradient id="paint0_linear_4413_15286" x1="-1.53106e-06" y1="28" x2="51.5" y2="28" gradientUnits="userSpaceOnUse">
<stop stop-color="#2329F4"/>
<stop offset="1" stop-color="#721CF6"/>
</linearGradient>
</defs>
</svg>
