<svg width="55" height="55" viewBox="0 0 55 55" fill="none" xmlns="http://www.w3.org/2000/svg">
<rect width="55" height="55" rx="14" fill="url(#paint0_linear_4413_15264)"/>
<path fill-rule="evenodd" clip-rule="evenodd" d="M17.9211 24.4347L18.7372 23.3472C19.1071 22.8541 19.7155 22.6224 20.3054 22.7498C20.7621 22.8485 21.0551 23.3123 20.96 23.7857C20.9521 23.8249 20.9416 23.8635 20.9287 23.9012C20.2507 25.8722 20.0349 27.174 20.2812 27.8066C21.2952 26.5576 26.4754 18.4131 28.1127 18.0265C28.6593 17.8974 29.2034 18.2522 29.3279 18.8188C29.37 19.0105 29.3595 19.2107 29.2975 19.3965C27.7504 24.0337 27.0954 26.8376 27.3325 27.8084C28.1496 26.6165 29.3632 25.0124 30.9733 22.996C31.5781 22.2386 32.543 21.8992 33.4675 22.1187C34.2805 22.3116 34.7887 23.1512 34.6026 23.994C34.6014 23.9996 34.6002 24.0051 34.5988 24.0106C34.0386 26.4264 33.8309 27.8397 33.9758 28.2507C34.0398 28.2002 34.1047 28.1485 34.1707 28.0954C34.9091 27.5012 35.8338 27.2116 36.7661 27.2826L44 27.8328L39.2073 28.3978C37.8693 28.5556 36.6438 29.2496 35.7929 30.3316L34.6459 31.7898C34.2705 32.2672 33.6936 32.5242 33.1011 32.478C32.5124 32.432 32.0257 31.9844 31.9116 31.384C31.6316 29.9092 31.5867 28.1684 31.7771 26.1616C30.338 28.3907 29.0894 31.5966 28.0312 35.7793C27.8493 36.4986 27.2223 37 26.5051 37C25.8202 37 25.2592 36.436 25.2381 35.7263L24.921 25.0311L21.8538 31.2973C21.5346 31.9494 20.8322 32.2974 20.1423 32.1453C19.4113 31.9841 18.8066 31.4545 18.5312 30.7343L18.1875 29.8354C17.7012 28.5636 16.6036 27.6522 15.3001 27.438C13.8668 27.2024 12.4334 26.9668 11 26.7312L14.1928 26.4971C15.6616 26.3894 17.017 25.6396 17.9211 24.4347Z" fill="white"/>
<defs>
<linearGradient id="paint0_linear_4413_15264" x1="-1.53106e-06" y1="28" x2="51.5" y2="28" gradientUnits="userSpaceOnUse">
<stop stop-color="#2329F4"/>
<stop offset="1" stop-color="#721CF6"/>
</linearGradient>
</defs>
</svg>
