<?xml version="1.0" encoding="UTF-8"?>
<svg xmlns="http://www.w3.org/2000/svg" width="54" height="54" viewBox="0 0 54 54" fill="none">
  <rect width="54" height="54" rx="8" fill="url(#paint0_linear_1187_9790)"></rect>
  <path d="M44.639 42.2768H43.4711V27.4833H44.639C44.8327 27.4833 45.0111 27.3777 45.1044 27.2079C45.1976 27.038 45.1909 26.8308 45.0869 26.6674L41.1231 20.4385C41.0256 20.2853 40.8567 20.1926 40.6752 20.1926H30.1361L27.6158 17.6724V15.5918H32.7475C32.9433 15.5918 33.1232 15.4841 33.2156 15.3114C33.308 15.1389 33.2979 14.9294 33.1892 14.7665L32.253 13.3622L33.1893 11.9578C33.2979 11.795 33.308 11.5855 33.2157 11.4129C33.1232 11.2402 32.9433 11.1325 32.7475 11.1325H27.6158V10.5309C27.6158 10.2377 27.3781 10 27.0849 10C26.7917 10 26.5541 10.2377 26.5541 10.5309V17.6724L24.0338 20.1927H13.4947C13.3132 20.1927 13.1443 20.2854 13.0468 20.4386L9.08297 26.6674C8.97899 26.8309 8.97227 27.038 9.06549 27.2079C9.15878 27.3777 9.33715 27.4833 9.53088 27.4833H10.6988V42.2768H9.53088C9.2377 42.2768 9.00001 42.5145 9.00001 42.8077C9.00001 43.1008 9.2377 43.3385 9.53088 43.3385H44.639C44.9322 43.3385 45.1698 43.1008 45.1698 42.8077C45.1698 42.5145 44.9322 42.2768 44.639 42.2768ZM40.3837 21.2544L43.6719 26.4215H36.3649L31.1978 21.2544H40.3837ZM31.7556 12.1943L31.1732 13.0677C31.0543 13.246 31.0543 13.4783 31.1732 13.6566L31.7556 14.5301H27.6158V12.1943H31.7556ZM13.7861 21.2544H22.972L17.8049 26.4215H10.498L13.7861 21.2544ZM11.7605 27.4833H18.0246C18.0422 27.4833 18.0597 27.4823 18.0773 27.4806C18.0848 27.4799 18.0922 27.4785 18.0996 27.4774C18.1093 27.476 18.119 27.4748 18.1287 27.4729C18.1373 27.4712 18.1457 27.4688 18.1542 27.4667C18.1624 27.4646 18.1708 27.4627 18.179 27.4603C18.1874 27.4578 18.1955 27.4546 18.2037 27.4517C18.2119 27.4488 18.22 27.4461 18.2281 27.4428C18.2358 27.4396 18.2431 27.4358 18.2506 27.4323C18.2588 27.4284 18.2671 27.4248 18.2751 27.4205C18.2824 27.4166 18.2892 27.4121 18.2963 27.408C18.3041 27.4034 18.312 27.3989 18.3196 27.3938C18.3275 27.3885 18.3349 27.3826 18.3425 27.3769C18.3487 27.3722 18.3552 27.3679 18.3612 27.3629C18.3748 27.3518 18.3878 27.34 18.4002 27.3275L27.0849 18.643L35.7696 27.3276C35.782 27.34 35.7951 27.3517 35.8086 27.3629C35.8147 27.3679 35.821 27.3722 35.8273 27.3769C35.8349 27.3826 35.8424 27.3886 35.8503 27.3939C35.8578 27.3989 35.8657 27.4033 35.8734 27.4079C35.8806 27.4122 35.8875 27.4167 35.8949 27.4206C35.9028 27.4248 35.9109 27.4284 35.9191 27.4322C35.9266 27.4358 35.9341 27.4396 35.9419 27.4428C35.9499 27.4461 35.9579 27.4487 35.9659 27.4516C35.9742 27.4546 35.9824 27.4578 35.9909 27.4604C35.999 27.4629 36.0072 27.4646 36.0153 27.4667C36.024 27.4689 36.0325 27.4713 36.0412 27.473C36.0506 27.4748 36.06 27.476 36.0694 27.4773C36.0771 27.4784 36.0848 27.4799 36.0926 27.4806C36.11 27.4823 36.1275 27.4833 36.145 27.4833H42.4093V42.2768H31.0134V34.88C31.0134 33.9628 30.2672 33.2166 29.35 33.2166H24.8199C23.9027 33.2166 23.1565 33.9628 23.1565 34.88V42.2768H11.7605V27.4833ZM29.9516 35.4817H24.2182V34.88C24.2182 34.5483 24.4881 34.2784 24.8199 34.2784H29.35C29.6817 34.2784 29.9516 34.5483 29.9516 34.88V35.4817ZM24.2182 36.5434H26.5541V42.2768H24.2182V36.5434ZM27.6158 36.5434H29.9516V42.2768H27.6158V36.5434Z" fill="white" stroke="white" stroke-width="0.05"></path>
  <path d="M27.0849 31.4477C29.2511 31.4477 31.0133 29.6854 31.0133 27.5192C31.0133 25.3531 29.2511 23.5908 27.0849 23.5908C24.9188 23.5908 23.1565 25.3531 23.1565 27.5192C23.1565 29.6854 24.9188 31.4477 27.0849 31.4477ZM27.0849 24.6526C28.6656 24.6526 29.9516 25.9385 29.9516 27.5192C29.9516 29.1 28.6656 30.3859 27.0849 30.3859C25.5042 30.3859 24.2182 29.1 24.2182 27.5192C24.2182 25.9385 25.5042 24.6526 27.0849 24.6526Z" fill="white" stroke="white" stroke-width="0.05"></path>
  <path d="M27.0849 28.0496C27.3781 28.0496 27.6157 27.8119 27.6157 27.5187V25.8199C27.6157 25.5267 27.3781 25.2891 27.0849 25.2891C26.7917 25.2891 26.554 25.5267 26.554 25.8199V26.9878H25.3861C25.0929 26.9878 24.8552 27.2255 24.8552 27.5187C24.8552 27.8119 25.0929 28.0496 25.3861 28.0496H27.0849Z" fill="white" stroke="white" stroke-width="0.05"></path>
  <path d="M21.4222 36.0469H18.5909C18.2977 36.0469 18.0601 36.2846 18.0601 36.5777V39.9753C18.0601 40.2685 18.2977 40.5062 18.5909 40.5062H21.4222C21.7154 40.5062 21.9531 40.2685 21.9531 39.9753V36.5777C21.9531 36.2846 21.7154 36.0469 21.4222 36.0469ZM20.8914 37.1086V37.7457H19.1218V37.1086H20.8914ZM19.1218 39.4444V38.8074H20.8914V39.4444H19.1218Z" fill="white" stroke="white" stroke-width="0.05"></path>
  <path d="M16.326 36.0469H13.4947C13.2016 36.0469 12.9639 36.2846 12.9639 36.5777V39.9753C12.9639 40.2685 13.2016 40.5062 13.4947 40.5062H16.326C16.6192 40.5062 16.8569 40.2685 16.8569 39.9753V36.5777C16.8569 36.2846 16.6192 36.0469 16.326 36.0469ZM15.7952 37.1086V37.7457H14.0256V37.1086H15.7952ZM14.0256 39.4444V38.8074H15.7952V39.4444H14.0256Z" fill="white" stroke="white" stroke-width="0.05"></path>
  <path d="M21.2453 29.2539H18.7679C18.3776 29.2539 18.0601 29.5714 18.0601 29.9617V33.7486C18.0601 34.0418 18.2977 34.2795 18.5909 34.2795H21.4222C21.7154 34.2795 21.9531 34.0418 21.9531 33.7486V29.9617C21.9531 29.5714 21.6356 29.2539 21.2453 29.2539ZM20.8914 30.3156V31.5189H19.1218V30.3156H20.8914ZM19.1218 33.2177V32.5807H20.8914V33.2177H19.1218Z" fill="white" stroke="white" stroke-width="0.05"></path>
  <path d="M16.1491 29.2539H13.6717C13.2814 29.2539 12.9639 29.5714 12.9639 29.9617V33.7486C12.9639 34.0418 13.2016 34.2795 13.4947 34.2795H16.326C16.6192 34.2795 16.8569 34.0418 16.8569 33.7486V29.9617C16.8569 29.5714 16.5394 29.2539 16.1491 29.2539ZM15.7952 30.3156V31.5189H14.0256V30.3156H15.7952ZM14.0256 33.2177V32.5807H15.7952V33.2177H14.0256Z" fill="white" stroke="white" stroke-width="0.05"></path>
  <path d="M37.8439 40.5062H40.6752C40.9683 40.5062 41.206 40.2685 41.206 39.9753V36.5777C41.206 36.2846 40.9683 36.0469 40.6752 36.0469H37.8439C37.5507 36.0469 37.313 36.2846 37.313 36.5777V39.9753C37.313 40.2685 37.5507 40.5062 37.8439 40.5062ZM38.3747 39.4444V38.8074H40.1443V39.4444H38.3747ZM40.1443 37.1086V37.7457H38.3747V37.1086H40.1443Z" fill="white" stroke="white" stroke-width="0.05"></path>
  <path d="M32.7477 40.5062H35.579C35.8721 40.5062 36.1098 40.2685 36.1098 39.9753V36.5777C36.1098 36.2846 35.8721 36.0469 35.579 36.0469H32.7477C32.4545 36.0469 32.2168 36.2846 32.2168 36.5777V39.9753C32.2168 40.2685 32.4545 40.5062 32.7477 40.5062ZM33.2785 39.4444V38.8074H35.0481V39.4444H33.2785ZM35.0481 37.1086V37.7457H33.2785V37.1086H35.0481Z" fill="white" stroke="white" stroke-width="0.05"></path>
  <path d="M37.8439 34.2795H40.6752C40.9683 34.2795 41.206 34.0418 41.206 33.7486V29.9617C41.206 29.5714 40.8885 29.2539 40.4982 29.2539H38.0208C37.6305 29.2539 37.313 29.5714 37.313 29.9617V33.7486C37.313 34.0418 37.5507 34.2795 37.8439 34.2795ZM38.3747 33.2177V32.5807H40.1443V33.2177H38.3747ZM40.1443 30.3156V31.5189H38.3747V30.3156H40.1443Z" fill="white" stroke="white" stroke-width="0.05"></path>
  <path d="M32.7477 34.2795H35.579C35.8721 34.2795 36.1098 34.0418 36.1098 33.7486V29.9617C36.1098 29.5714 35.7923 29.2539 35.402 29.2539H32.9246C32.5343 29.2539 32.2168 29.5714 32.2168 29.9617V33.7486C32.2168 34.0418 32.4545 34.2795 32.7477 34.2795ZM33.2785 33.2177V32.5807H35.0481V33.2177H33.2785ZM35.0481 30.3156V31.5189H33.2785V30.3156H35.0481Z" fill="white" stroke="white" stroke-width="0.05"></path>
  <defs>
    <linearGradient id="paint0_linear_1187_9790" x1="2.51591" y1="27" x2="52.6859" y2="27.1474" gradientUnits="userSpaceOnUse">
      <stop stop-color="#2733FC"></stop>
      <stop offset="1" stop-color="#630CF6"></stop>
    </linearGradient>
  </defs>
</svg>
