<?xml version="1.0" encoding="utf-8"?>
<!-- Generator: Adobe Illustrator 27.7.0, SVG Export Plug-In . SVG Version: 6.00 Build 0)  -->
<svg version="1.1" id="Layer_1" xmlns="http://www.w3.org/2000/svg" xmlns:xlink="http://www.w3.org/1999/xlink" x="0px" y="0px"
	 viewBox="0 0 54 54" style="enable-background:new 0 0 54 54;" xml:space="preserve">
<style type="text/css">
	.st0{fill:#FF2116;}
	.st1{fill:#FFFFFF;}
</style>
<g>
	<path class="st0" d="M54,14.9c0-0.5,0-1.1,0-1.6c0-1.2-0.1-2.4-0.3-3.5c-0.2-1.2-0.6-2.3-1.1-3.4c-0.5-1.1-1.2-2-2.1-2.9
		c-0.8-0.8-1.8-1.5-2.9-2.1c-1.1-0.5-2.2-0.9-3.4-1.1c-1.2-0.2-2.4-0.3-3.5-0.3c-0.5,0-1.1,0-1.6,0c-0.6,0-1.3,0-1.9,0l-7.4,0h-5.6
		l-7.3,0c-0.6,0-1.3,0-1.9,0c-0.5,0-1.1,0-1.6,0c-1.2,0-2.4,0.1-3.5,0.3C8.6,0.6,7.5,0.9,6.4,1.5C5.4,2,4.4,2.7,3.6,3.5
		C2.7,4.4,2,5.3,1.5,6.4C0.9,7.5,0.6,8.6,0.4,9.7c-0.2,1.2-0.3,2.3-0.3,3.5c0,0.5,0,1.1,0,1.6c0,0.6,0,1.4,0,2.1v7.2v5.6l0,7.4
		c0,0.6,0,1.3,0,1.9c0,0.5,0,1.1,0,1.6c0,1.2,0.1,2.4,0.3,3.5c0.2,1.2,0.6,2.3,1.1,3.4c0.5,1.1,1.2,2,2.1,2.9s1.8,1.5,2.9,2.1
		c1.1,0.5,2.2,0.9,3.4,1.1c1.2,0.2,2.4,0.3,3.5,0.3c0.5,0,1.1,0,1.6,0c0.6,0,1.3,0,1.9,0h7.4h5.6h7.4c0.6,0,1.3,0,1.9,0
		c0.5,0,1.1,0,1.6,0c1.2,0,2.4-0.1,3.5-0.3c1.2-0.2,2.3-0.6,3.4-1.1c1.1-0.5,2-1.2,2.9-2.1c0.8-0.8,1.5-1.8,2.1-2.9
		c0.5-1.1,0.9-2.2,1.1-3.4c0.2-1.2,0.3-2.4,0.3-3.5c0-0.5,0-1.1,0-1.6c0-0.6,0-1.3,0-1.9c0,0,0-7.2,0-7.4v-5.6c0-0.1,0-7.4,0-7.4
		C54,16.2,54,15.5,54,14.9z"/>
	<g>
		<path class="st1" d="M14.5,31.4c-1.4-1.4,0.1-3.4,4.3-5.5l2.7-1.3l1-2.3c0.6-1.2,1.4-3.3,1.9-4.5l0.9-2.2l-0.6-1.7
			c-0.7-2-1-5.1-0.5-6.2c0.6-1.5,2.7-1.3,3.5,0.3c0.6,1.3,0.6,3.5-0.2,6.4l-0.6,2.3l0.5,0.9c0.3,0.5,1.2,1.7,1.9,2.7l1.4,1.8
			l1.8-0.2C38.1,21,40,22.2,40,24c0,2.3-4.4,2.5-8.2-0.2c-0.8-0.6-1.4-1.2-1.4-1.2s-2.3,0.5-3.5,0.8c-1.2,0.3-1.8,0.5-3.5,1.1
			c0,0-0.6,0.9-1,1.5c-1.5,2.4-3.2,4.4-4.4,5.1C16.6,32,15.2,32.1,14.5,31.4z M16.7,30.5c0.8-0.5,2.4-2.4,3.6-4.2l0.5-0.7l-2.1,1
			c-3.2,1.6-4.7,3.1-3.9,4.1C15.2,31.2,15.7,31.2,16.7,30.5L16.7,30.5z M37.7,24.7c0.8-0.6,0.7-1.7-0.2-2.1
			c-0.7-0.3-1.3-0.4-3.1-0.4c-1.1,0.1-2.9,0.3-3.2,0.4c0,0,1,0.7,1.4,0.9c0.6,0.3,2,0.9,3,1.3C36.6,25,37.2,25,37.7,24.7L37.7,24.7z
			 M29.2,21.2c-0.5-0.5-1.3-1.6-1.8-2.3c-0.7-0.9-1-1.5-1-1.5s-0.5,1.6-0.9,2.5L24.3,23l-0.4,0.7c0,0,1.9-0.6,2.9-0.9
			c1-0.3,3.2-0.7,3.2-0.7L29.2,21.2z M26.5,10.3c0.1-1,0.2-2-0.2-2.6c-0.9-1-2-0.2-1.8,2.2c0.1,0.8,0.3,2.2,0.5,3l0.5,1.5l0.3-1.2
			C26.1,12.7,26.4,11.3,26.5,10.3L26.5,10.3z"/>
		<path class="st1" d="M16.9,38h2.3c0.7,0,1.4,0.1,1.8,0.2c0.5,0.1,0.9,0.4,1.2,0.9c0.3,0.5,0.5,1.1,0.5,1.7c0,0.6-0.1,1.2-0.4,1.6
			c-0.3,0.4-0.6,0.8-1,1c-0.4,0.2-1.1,0.3-2,0.3h-0.8v3.7h-1.6L16.9,38z M18.5,39.2v3.3h0.8c0.7,0,1.2-0.1,1.4-0.4
			c0.3-0.3,0.4-0.7,0.4-1.3c0-0.4-0.1-0.8-0.3-1c-0.2-0.3-0.4-0.4-0.6-0.5c-0.2-0.1-0.5-0.1-1-0.1L18.5,39.2z M23.9,38H26
			c1,0,1.8,0.2,2.5,0.5c0.6,0.4,1.1,0.9,1.4,1.6c0.3,0.7,0.5,1.5,0.5,2.4c0,0.9-0.1,1.7-0.4,2.5c-0.3,0.7-0.7,1.3-1.3,1.7
			c-0.6,0.4-1.4,0.7-2.5,0.7h-2.2V38z M25.5,39.3v6.9h0.6c0.9,0,1.6-0.3,2-0.9c0.4-0.6,0.6-1.5,0.6-2.5c0-2.3-0.9-3.5-2.6-3.5
			L25.5,39.3z M31.9,38h5.2v1.2h-3.7v2.8h2.9v1.2h-2.9v4.1h-1.6L31.9,38z"/>
	</g>
</g>
</svg>
