<?xml version="1.0" encoding="UTF-8"?>
<svg xmlns="http://www.w3.org/2000/svg" width="30" height="30" viewBox="0 0 30 30" fill="none">
  <mask id="mask0_1190_9970" style="mask-type:alpha" maskUnits="userSpaceOnUse" x="0" y="0" width="30" height="30">
    <rect width="30" height="30" fill="#D9D9D9"></rect>
  </mask>
  <g mask="url(#mask0_1190_9970)">
    <rect width="30" height="30" rx="4" fill="url(#paint0_linear_1190_9970)"></rect>
    <path d="M25.65 5H5.35C5.15645 5 5 5.1568 5 5.35V17.95C5 18.1432 5.15645 18.3 5.35 18.3H8.85V18.9342C8.2235 19.2978 7.8 19.9747 7.8 20.75C7.8 21.4307 8.12725 22.0352 8.6309 22.4192C7.52455 22.9085 6.75 24.0148 6.75 25.3V25.65C6.75 25.8432 6.90645 26 7.1 26H12.7H18.3H23.9C24.0935 26 24.25 25.8432 24.25 25.65V25.3C24.25 24.0148 23.4754 22.9085 22.3691 22.4192C22.8727 22.0352 23.2 21.4307 23.2 20.75C23.2 19.9747 22.7765 19.2978 22.15 18.9342V18.3H25.65C25.8435 18.3 26 18.1432 26 17.95V5.35C26 5.1568 25.8435 5 25.65 5ZM8.5 20.75C8.5 19.9779 9.1279 19.35 9.9 19.35C10.6721 19.35 11.3 19.9779 11.3 20.75C11.3 21.5221 10.6721 22.15 9.9 22.15C9.1279 22.15 8.5 21.5221 8.5 20.75ZM7.45 25.3C7.45 23.949 8.54935 22.85 9.9 22.85C11.2506 22.85 12.35 23.949 12.35 25.3H7.45ZM11.1691 22.4192C11.6727 22.0352 12 21.4307 12 20.75C12 20.2117 11.7949 19.722 11.461 19.35H13.9393C13.6051 19.722 13.4 20.2117 13.4 20.75C13.4 21.4307 13.7273 22.0352 14.2309 22.4192C13.5701 22.7114 13.0293 23.2238 12.7 23.8632C12.3706 23.2238 11.8299 22.7114 11.1691 22.4192ZM14.1 20.75C14.1 19.9779 14.7279 19.35 15.5 19.35C16.2721 19.35 16.9 19.9779 16.9 20.75C16.9 21.5221 16.2721 22.15 15.5 22.15C14.7279 22.15 14.1 21.5221 14.1 20.75ZM13.05 25.3C13.05 23.949 14.1493 22.85 15.5 22.85C16.8506 22.85 17.95 23.949 17.95 25.3H13.05ZM16.7691 22.4192C17.2727 22.0352 17.6 21.4307 17.6 20.75C17.6 20.2117 17.3949 19.722 17.061 19.35H19.5393C19.2051 19.722 19 20.2117 19 20.75C19 21.4307 19.3272 22.0352 19.8309 22.4192C19.1701 22.7114 18.6293 23.2238 18.3 23.8632C17.9706 23.2238 17.4299 22.7114 16.7691 22.4192ZM23.55 25.3H18.65C18.65 23.949 19.7493 22.85 21.1 22.85C22.4506 22.85 23.55 23.949 23.55 25.3ZM22.5 20.75C22.5 21.5221 21.8721 22.15 21.1 22.15C20.3279 22.15 19.7 21.5221 19.7 20.75C19.7 19.9779 20.3279 19.35 21.1 19.35C21.8721 19.35 22.5 19.9779 22.5 20.75ZM21.8 15.85H20.75V16.55H21.45V18.65H9.55V16.2C9.55 16.0068 9.39355 15.85 9.2 15.85H8.15V15.15H12.7H18.3H22.85V15.85H21.8ZM17.5632 10.6C17.9591 10.6 18.3473 10.7362 18.6563 10.9836L19.8309 11.9233C19.9061 11.9835 20.0031 12.0105 20.098 11.9968C20.1928 11.9835 20.2789 11.9317 20.3345 11.8533L21.8763 9.6949L22.7138 10.3228L20.9964 12.6846C20.8238 12.9222 20.568 13.0728 20.2768 13.1092C19.9845 13.1452 19.7007 13.0619 19.4753 12.8739L18.524 12.0812C18.4197 11.9944 18.2741 11.9758 18.1516 12.0329C18.0287 12.0906 17.95 12.2142 17.95 12.35V14.45H15.85V11.3H15.15V14.45H13.05V12.35C13.05 12.2142 12.9712 12.0906 12.8484 12.0329C12.7266 11.9758 12.5807 11.9941 12.476 12.0812L11.5247 12.8739C11.2989 13.0622 11.0158 13.1452 10.7232 13.1092C10.432 13.0728 10.1765 12.9222 10.0036 12.6846L8.28615 10.3228L9.1237 9.6949L10.6654 11.8533C10.7211 11.9317 10.8069 11.9835 10.9021 11.9968C10.9973 12.0108 11.0938 11.9835 11.1691 11.9233L12.3437 10.9836C12.6524 10.7362 13.0409 10.6 13.4364 10.6H17.5632ZM14.1 8.5C14.1 7.7279 14.7279 7.1 15.5 7.1C16.2721 7.1 16.9 7.7279 16.9 8.5C16.9 9.2721 16.2721 9.9 15.5 9.9C14.7279 9.9 14.1 9.2721 14.1 8.5ZM25.3 17.6H22.15V16.55H23.2C23.3935 16.55 23.55 16.3932 23.55 16.2V14.8C23.55 14.6068 23.3935 14.45 23.2 14.45H18.65V13.0972L19.0269 13.4116C19.3979 13.7206 19.8866 13.8634 20.3629 13.8039C20.8414 13.7447 21.2785 13.4868 21.5623 13.0965L23.4828 10.4561C23.5951 10.3014 23.5629 10.0848 23.4096 9.97035L22.0096 8.92035C21.9344 8.86365 21.8409 8.8402 21.7461 8.85455C21.653 8.8689 21.5697 8.92035 21.5151 8.997L19.98 11.146L19.0942 10.4372C18.6612 10.0907 18.1176 9.9 17.5636 9.9H17.061C17.3949 9.52795 17.6 9.0383 17.6 8.5C17.6 7.34185 16.6581 6.4 15.5 6.4C14.3418 6.4 13.4 7.34185 13.4 8.5C13.4 9.0383 13.6051 9.52795 13.939 9.9H13.4364C12.882 9.9 12.3385 10.0908 11.9059 10.4369L11.02 11.146L9.48455 8.99665C9.42995 8.92 9.3463 8.86855 9.25355 8.8542C9.1587 8.8402 9.06525 8.86365 8.99 8.92L7.59 9.97C7.4367 10.0848 7.4045 10.3011 7.51685 10.4558L9.4373 13.0962C9.72115 13.4861 10.1583 13.744 10.6367 13.8035C11.1124 13.8627 11.6021 13.7202 11.9727 13.4112L12.35 13.0972V14.45H7.8C7.60645 14.45 7.45 14.6068 7.45 14.8V16.2C7.45 16.3932 7.60645 16.55 7.8 16.55H8.85V17.6H5.7V5.7H25.3V17.6Z" fill="white"></path>
    <path d="M24.5999 6.40039H23.8999V7.10039H24.5999V6.40039Z" fill="white"></path>
    <path d="M23.2 6.40039H22.5V7.10039H23.2V6.40039Z" fill="white"></path>
    <path d="M21.8001 6.40039H21.1001V7.10039H21.8001V6.40039Z" fill="white"></path>
    <path d="M20.0501 15.8496H19.3501V16.5496H20.0501V15.8496Z" fill="white"></path>
  </g>
  <defs>
    <linearGradient id="paint0_linear_1190_9970" x1="1.39773" y1="15" x2="29.27" y2="15.0819" gradientUnits="userSpaceOnUse">
      <stop stop-color="#2733FC"></stop>
      <stop offset="1" stop-color="#630CF6"></stop>
    </linearGradient>
  </defs>
</svg>
