<?xml version="1.0" encoding="UTF-8"?>
<svg xmlns="http://www.w3.org/2000/svg" width="30" height="30" viewBox="0 0 30 30" fill="none">
  <mask id="mask0_1190_9952" style="mask-type:alpha" maskUnits="userSpaceOnUse" x="0" y="0" width="30" height="30">
    <rect width="30" height="30" fill="#D9D9D9"></rect>
  </mask>
  <g mask="url(#mask0_1190_9952)">
    <rect width="30" height="30" rx="4" fill="url(#paint0_linear_1190_9952)"></rect>
    <path d="M26.4491 25.3312H25.7134V16.0127H26.4491C26.5711 16.0127 26.6834 15.9463 26.7422 15.8393C26.8009 15.7322 26.7967 15.6017 26.7312 15.4988L24.2344 11.5752C24.173 11.4787 24.0666 11.4203 23.9522 11.4203H17.3137L15.7261 9.83285V8.52229H18.9586C19.0819 8.52229 19.1953 8.45443 19.2535 8.34569C19.3116 8.23699 19.3053 8.10501 19.2368 8.00242L18.6471 7.11783L19.2369 6.23325C19.3053 6.13066 19.3116 5.99868 19.2535 5.88998C19.1953 5.78124 19.0819 5.71338 18.9586 5.71338H15.7261V5.33439C15.7261 5.14972 15.5764 5 15.3917 5C15.2071 5 15.0573 5.14972 15.0573 5.33439V9.83285L13.4698 11.4204H6.83122C6.7169 11.4204 6.61047 11.4788 6.54908 11.5753L4.05226 15.4988C3.98677 15.6018 3.98253 15.7323 4.04125 15.8393C4.10001 15.9463 4.21237 16.0127 4.3344 16.0127H5.07007V25.3312H4.3344C4.14973 25.3312 4.00001 25.4809 4.00001 25.6656C4.00001 25.8503 4.14973 26 4.3344 26H26.4491C26.6337 26 26.7834 25.8503 26.7834 25.6656C26.7834 25.4809 26.6337 25.3312 26.4491 25.3312ZM23.7687 12.0892L25.8399 15.3439H21.2372L17.9824 12.0892H23.7687ZM18.3338 6.38217L17.967 6.93236C17.8921 7.04467 17.8921 7.191 17.967 7.30331L18.3338 7.8535H15.7261V6.38217H18.3338ZM7.01478 12.0892H12.801L9.54619 15.3439H4.94358L7.01478 12.0892ZM5.73886 16.0127H9.68463C9.69569 16.0127 9.70675 16.0122 9.7178 16.011C9.72253 16.0106 9.72717 16.0097 9.73185 16.009C9.73796 16.0081 9.74407 16.0074 9.75017 16.0062C9.75561 16.0052 9.76087 16.0036 9.76622 16.0023C9.77144 16.001 9.7767 15.9998 9.78187 15.9983C9.78714 15.9967 9.79226 15.9947 9.79743 15.9929C9.80256 15.991 9.80769 15.9893 9.81277 15.9872C9.81763 15.9852 9.82227 15.9829 9.827 15.9806C9.83212 15.9782 9.83734 15.9759 9.84238 15.9732C9.84697 15.9707 9.85129 15.9679 9.85575 15.9653C9.86066 15.9624 9.86565 15.9596 9.87042 15.9564C9.87542 15.953 9.8801 15.9493 9.88487 15.9457C9.88879 15.9428 9.89285 15.9401 9.89664 15.9369C9.9052 15.9299 9.9134 15.9225 9.92121 15.9146L15.3917 10.4442L20.8623 15.9147C20.8701 15.9225 20.8783 15.9299 20.8868 15.9369C20.8906 15.9401 20.8946 15.9428 20.8985 15.9457C20.9034 15.9493 20.9081 15.9531 20.9131 15.9564C20.9178 15.9596 20.9228 15.9624 20.9276 15.9653C20.9321 15.968 20.9365 15.9708 20.9411 15.9732C20.9461 15.9759 20.9512 15.9782 20.9564 15.9806C20.9611 15.9829 20.9659 15.9852 20.9708 15.9873C20.9758 15.9893 20.9808 15.991 20.9859 15.9928C20.9911 15.9947 20.9963 15.9967 21.0016 15.9983C21.0067 15.9999 21.0119 16.001 21.017 16.0023C21.0224 16.0037 21.0278 16.0052 21.0333 16.0063C21.0392 16.0074 21.0451 16.0081 21.0511 16.009C21.0559 16.0097 21.0607 16.0106 21.0657 16.0111C21.0767 16.0122 21.0877 16.0127 21.0987 16.0127H25.0446V25.3312H17.8663V20.672C17.8663 20.0942 17.3962 19.6242 16.8185 19.6242H13.965C13.3872 19.6242 12.9172 20.0942 12.9172 20.672V25.3312H5.73886V16.0127ZM17.1975 21.051H13.586V20.672C13.586 20.463 13.756 20.293 13.965 20.293H16.8185C17.0275 20.293 17.1975 20.463 17.1975 20.672V21.051ZM13.586 21.7197H15.0573V25.3312H13.586V21.7197ZM15.7261 21.7197H17.1975V25.3312H15.7261V21.7197Z" fill="white" stroke="white" stroke-width="0.05"></path>
    <path d="M15.3915 18.5096C16.756 18.5096 17.866 17.3995 17.866 16.0351C17.866 14.6706 16.756 13.5605 15.3915 13.5605C14.027 13.5605 12.917 14.6706 12.917 16.0351C12.917 17.3995 14.027 18.5096 15.3915 18.5096ZM15.3915 14.2293C16.3872 14.2293 17.1972 15.0394 17.1972 16.0351C17.1972 17.0308 16.3872 17.8408 15.3915 17.8408C14.3958 17.8408 13.5858 17.0308 13.5858 16.0351C13.5858 15.0394 14.3958 14.2293 15.3915 14.2293Z" fill="white" stroke="white" stroke-width="0.05"></path>
    <path d="M15.3918 16.3697C15.5764 16.3697 15.7262 16.22 15.7262 16.0353V14.9653C15.7262 14.7806 15.5764 14.6309 15.3918 14.6309C15.2071 14.6309 15.0574 14.7806 15.0574 14.9653V15.7009H14.3217C14.137 15.7009 13.9873 15.8506 13.9873 16.0353C13.9873 16.22 14.137 16.3697 14.3217 16.3697H15.3918Z" fill="white" stroke="white" stroke-width="0.05"></path>
    <path d="M11.8249 21.4072H10.0414C9.85675 21.4072 9.70703 21.5569 9.70703 21.7416V23.8817C9.70703 24.0664 9.85675 24.2161 10.0414 24.2161H11.8249C12.0095 24.2161 12.1593 24.0664 12.1593 23.8817V21.7416C12.1593 21.5569 12.0095 21.4072 11.8249 21.4072ZM11.4905 22.076V22.4773H10.3758V22.076H11.4905ZM10.3758 23.5474V23.1461H11.4905V23.5474H10.3758Z" fill="white" stroke="white" stroke-width="0.05"></path>
    <path d="M8.61466 21.4072H6.83122C6.64655 21.4072 6.49683 21.5569 6.49683 21.7416V23.8817C6.49683 24.0664 6.64655 24.2161 6.83122 24.2161H8.61466C8.79934 24.2161 8.94906 24.0664 8.94906 23.8817V21.7416C8.94906 21.5569 8.79934 21.4072 8.61466 21.4072ZM8.28027 22.076V22.4773H7.16562V22.076H8.28027ZM7.16562 23.5474V23.1461H8.28027V23.5474H7.16562Z" fill="white" stroke="white" stroke-width="0.05"></path>
    <path d="M11.7134 17.1279H10.1529C9.90704 17.1279 9.70703 17.3279 9.70703 17.5738V19.9591C9.70703 20.1438 9.85675 20.2935 10.0414 20.2935H11.8249C12.0095 20.2935 12.1593 20.1438 12.1593 19.9591V17.5738C12.1593 17.3279 11.9592 17.1279 11.7134 17.1279ZM11.4905 17.7967V18.5547H10.3758V17.7967H11.4905ZM10.3758 19.6247V19.2235H11.4905V19.6247H10.3758Z" fill="white" stroke="white" stroke-width="0.05"></path>
    <path d="M8.5032 17.1279H6.94269C6.69684 17.1279 6.49683 17.3279 6.49683 17.5738V19.9591C6.49683 20.1438 6.64655 20.2935 6.83122 20.2935H8.61466C8.79934 20.2935 8.94906 20.1438 8.94906 19.9591V17.5738C8.94906 17.3279 8.74904 17.1279 8.5032 17.1279ZM8.28027 17.7967V18.5547H7.16562V17.7967H8.28027ZM7.16562 19.6247V19.2235H8.28027V19.6247H7.16562Z" fill="white" stroke="white" stroke-width="0.05"></path>
    <path d="M22.1689 24.2161H23.9523C24.137 24.2161 24.2867 24.0664 24.2867 23.8817V21.7416C24.2867 21.5569 24.137 21.4072 23.9523 21.4072H22.1689C21.9842 21.4072 21.8345 21.5569 21.8345 21.7416V23.8817C21.8345 24.0664 21.9842 24.2161 22.1689 24.2161ZM22.5033 23.5474V23.1461H23.6179V23.5474H22.5033ZM23.6179 22.076V22.4773H22.5033V22.076H23.6179Z" fill="white" stroke="white" stroke-width="0.05"></path>
    <path d="M18.9587 24.2161H20.7421C20.9268 24.2161 21.0765 24.0664 21.0765 23.8817V21.7416C21.0765 21.5569 20.9268 21.4072 20.7421 21.4072H18.9587C18.774 21.4072 18.6243 21.5569 18.6243 21.7416V23.8817C18.6243 24.0664 18.774 24.2161 18.9587 24.2161ZM19.2931 23.5474V23.1461H20.4077V23.5474H19.2931ZM20.4077 22.076V22.4773H19.2931V22.076H20.4077Z" fill="white" stroke="white" stroke-width="0.05"></path>
    <path d="M22.1689 20.2935H23.9523C24.137 20.2935 24.2867 20.1438 24.2867 19.9591V17.5738C24.2867 17.3279 24.0867 17.1279 23.8408 17.1279H22.2803C22.0345 17.1279 21.8345 17.3279 21.8345 17.5738V19.9591C21.8345 20.1438 21.9842 20.2935 22.1689 20.2935ZM22.5033 19.6247V19.2235H23.6179V19.6247H22.5033ZM23.6179 17.7967V18.5547H22.5033V17.7967H23.6179Z" fill="white" stroke="white" stroke-width="0.05"></path>
    <path d="M18.9587 20.2935H20.7421C20.9268 20.2935 21.0765 20.1438 21.0765 19.9591V17.5738C21.0765 17.3279 20.8765 17.1279 20.6306 17.1279H19.0701C18.8243 17.1279 18.6243 17.3279 18.6243 17.5738V19.9591C18.6243 20.1438 18.774 20.2935 18.9587 20.2935ZM19.2931 19.6247V19.2235H20.4077V19.6247H19.2931ZM20.4077 17.7967V18.5547H19.2931V17.7967H20.4077Z" fill="white" stroke="white" stroke-width="0.05"></path>
  </g>
  <defs>
    <linearGradient id="paint0_linear_1190_9952" x1="1.39773" y1="15" x2="29.27" y2="15.0819" gradientUnits="userSpaceOnUse">
      <stop stop-color="#2733FC"></stop>
      <stop offset="1" stop-color="#630CF6"></stop>
    </linearGradient>
  </defs>
</svg>
