<?xml version="1.0" encoding="UTF-8"?>
<svg xmlns="http://www.w3.org/2000/svg" width="30" height="30" viewBox="0 0 30 30" fill="none">
  <mask id="mask0_1190_9966" style="mask-type:alpha" maskUnits="userSpaceOnUse" x="0" y="0" width="30" height="30">
    <rect width="30" height="30" fill="#D9D9D9"></rect>
  </mask>
  <g mask="url(#mask0_1190_9966)">
    <rect width="30" height="30" rx="4" fill="url(#paint0_linear_1190_9966)"></rect>
    <path d="M7.80846 19.1915V16.7972L8.81888 17.1903L8.82184 17.1837L8.84593 17.1399C9.23313 16.5371 9.85931 16.1177 10.5644 15.9898L12.9958 15.5474V15.3555C12.0865 14.8275 11.4207 13.9267 11.2132 12.8619C10.5396 12.7225 10.0316 12.1249 10.0316 11.4105V7.75083C10.0316 6.71669 10.7089 5.81483 11.6916 5.52138L11.8768 5.33611C12.7387 4.47427 13.8843 4 15.103 4C17.6185 4 19.6653 6.04641 19.6653 8.56228V11.4105C19.6653 12.1249 19.1573 12.7225 18.4837 12.8619C18.2758 13.9267 17.6103 14.8279 16.7011 15.3555V15.5474L19.1321 15.9895C19.8365 16.1173 20.4623 16.536 20.8498 17.1385L20.8721 17.1926L21.8884 16.7972V19.1915C22.5013 19.1915 23 19.6903 23 20.3031V21.7852C23 22.3981 22.5013 22.8968 21.8884 22.8968V24.2618L14.8484 27L7.80846 24.2618V22.8968C7.19561 22.8968 6.69688 22.3981 6.69688 21.7852V20.3031C6.69688 19.6903 7.19561 19.1915 7.80846 19.1915ZM12.3014 16.4271L10.6971 16.7187C10.2247 16.8046 9.80633 17.0773 9.52732 17.4656L13.1122 18.8596L12.3014 16.4271ZM15.9285 15.6953C15.5865 15.7998 15.2242 15.8568 14.8484 15.8568C14.4727 15.8568 14.1104 15.7998 13.7684 15.6953L14.8484 16.5052L15.9285 15.6953ZM15.4124 17.0084L16.1686 17.7643L16.6592 16.2929L16.4232 16.2503L15.4124 17.0084ZM13.2737 16.2507L13.0377 16.2933L13.5283 17.7647L14.2845 17.0088L13.2737 16.2507ZM11.1432 12.0486V10.7725C10.9227 10.901 10.7727 11.1374 10.7727 11.4105C10.7727 11.6836 10.9227 11.92 11.1432 12.0486ZM18.5537 12.0486C18.7742 11.92 18.9242 11.6836 18.9242 11.4105C18.9242 11.1374 18.7742 10.901 18.5537 10.7725V12.0486ZM18.5537 9.55788V9.98102C18.6856 10.0155 18.8094 10.0674 18.9242 10.1344V8.56228C18.9242 6.45547 17.2102 4.74105 15.103 4.74105C14.0826 4.74105 13.1225 5.13862 12.4007 5.86041L12.0739 6.18758L11.9743 6.21204C11.2666 6.38878 10.7727 7.02164 10.7727 7.75083V10.1344C10.8875 10.0674 11.0113 10.0151 11.1432 9.98102V9.55788H12.3181C13.3222 9.55788 14.2819 9.07842 14.884 8.27549L15.1786 7.882L15.9148 8.6186C16.521 9.22441 17.3265 9.55788 18.1832 9.55788H18.5537ZM17.8126 12.1516V10.2819C16.8978 10.197 16.0489 9.80021 15.3909 9.14252L15.2468 8.99839C14.5039 9.81836 13.4338 10.2989 12.3181 10.2989H11.8842V12.1516C11.8842 13.7859 13.2141 15.1158 14.8484 15.1158C16.4828 15.1158 17.8126 13.7859 17.8126 12.1516ZM18.9998 16.7187L17.3954 16.4271L16.5847 18.8596L20.1703 17.4653C19.8913 17.0766 19.4722 16.8046 18.9998 16.7187ZM22.2589 21.7852V20.3031C22.2589 20.0986 22.0926 19.9326 21.8884 19.9326C21.2756 19.9326 20.7768 20.4313 20.7768 21.0442C20.7768 21.657 21.2756 22.1557 21.8884 22.1557C22.0926 22.1557 22.2589 21.9898 22.2589 21.7852ZM15.219 26.0603L21.1474 23.7553V22.7397C20.4941 22.4529 20.0358 21.8019 20.0358 21.0442C20.0358 20.2864 20.4941 19.6354 21.1474 19.3486V17.8806L15.219 20.186V26.0603ZM16.3191 18.9633L14.8484 17.4923L13.3778 18.9629L14.8484 19.535L16.3191 18.9633ZM8.54951 23.7549L14.4779 26.06V20.186L8.54951 17.8806V19.3486C9.20274 19.6354 9.66108 20.2864 9.66108 21.0442C9.66108 21.8019 9.20274 22.4529 8.54951 22.7397V23.7549ZM7.43793 21.7852C7.43793 21.9898 7.6043 22.1557 7.80846 22.1557C8.4213 22.1557 8.92003 21.657 8.92003 21.0442C8.92003 20.4313 8.4213 19.9326 7.80846 19.9326C7.6043 19.9326 7.43793 20.0986 7.43793 20.3031V21.7852Z" fill="white"></path>
  </g>
  <defs>
    <linearGradient id="paint0_linear_1190_9966" x1="1.39773" y1="15" x2="29.27" y2="15.0819" gradientUnits="userSpaceOnUse">
      <stop stop-color="#2733FC"></stop>
      <stop offset="1" stop-color="#630CF6"></stop>
    </linearGradient>
  </defs>
</svg>
