<?xml version="1.0" encoding="UTF-8"?>
<svg xmlns="http://www.w3.org/2000/svg" width="55" height="55" viewBox="0 0 55 55">
  <rect width="55" height="55" rx="14" fill="#2137fc"></rect>
  <path d="M17.921,24.435l.816-1.087a1.55,1.55,0,0,1,1.568-.6.876.876,0,0,1,.655,1.036.915.915,0,0,1-.031.115q-1.017,2.957-.647,3.905c1.014-1.249,6.194-9.394,7.831-9.78a1.015,1.015,0,0,1,1.215.792,1.089,1.089,0,0,1-.03.578q-2.321,6.956-1.965,8.412,1.225-1.785,3.64-4.806a2.46,2.46,0,0,1,2.494-.877A1.568,1.568,0,0,1,34.6,23.994v.017q-.84,3.624-.623,4.24l.195-.155a3.689,3.689,0,0,1,2.6-.813l7.234.55-4.793.565A5.111,5.111,0,0,0,35.8,30.332L34.646,31.79a1.789,1.789,0,0,1-1.545.688,1.33,1.33,0,0,1-1.19-1.094,18.785,18.785,0,0,1-.135-5.222A33.083,33.083,0,0,0,28.03,35.78,1.589,1.589,0,0,1,26.5,37a1.29,1.29,0,0,1-1.267-1.274l-.317-10.7L21.854,31.3a1.54,1.54,0,0,1-1.712.848,2.256,2.256,0,0,1-1.611-1.411l-.344-.9a3.765,3.765,0,0,0-2.887-2.4L11,26.731l3.193-.234a5.137,5.137,0,0,0,3.728-2.062Z" transform="translate(0 -9)" fill="#fff" fill-rule="evenodd"></path>
  <text transform="translate(28 44)" fill="#fff" font-size="12" font-family="Roboto-Medium, Roboto" font-weight="500" letter-spacing="0.06em">
    <tspan x="-10.241" y="0">API</tspan>
  </text>
</svg>
