<?xml version="1.0" encoding="UTF-8"?>
<svg xmlns="http://www.w3.org/2000/svg" width="54" height="54" viewBox="0 0 54 54" fill="none">
  <rect width="54" height="54" rx="8" fill="url(#paint0_linear_1188_9809)"></rect>
  <path d="M35.8459 24.9336C35.6108 24.7761 35.2972 24.7761 35.0621 24.9336L32.4756 26.4293V16.353C32.4756 16.2743 32.4756 15.9594 32.2405 15.802L27.4594 11.2362C27.381 11.1574 27.2243 11 26.9108 11H13.5081C12.0973 11 11 12.1021 11 13.5191V35.3247C11 36.7417 12.1757 37.8438 13.5081 37.8438H19.1513C19.6216 37.8438 19.9351 37.5289 19.9351 37.0566C19.9351 36.5843 19.6216 36.2694 19.1513 36.2694H13.5081C12.9595 36.2694 12.5676 35.797 12.5676 35.3247V13.5191C12.5676 12.968 13.0378 12.5744 13.5081 12.5744H26.127V16.4317C26.127 16.9041 26.4405 17.2189 26.9108 17.2189H30.9081V27.3739L27.0675 29.5781H24.481C23.7756 29.5781 23.1486 29.893 22.6783 30.2866H16.8C16.3297 30.2866 16.0162 30.6015 16.0162 31.0738C16.0162 31.5461 16.3297 31.861 16.8 31.861H21.8162V35.6396C21.8162 37.1353 22.9919 38.3161 24.481 38.3161H27.0675L35.0621 42.8819C35.2972 43.0394 35.6108 43.0394 35.8459 42.8819C36.081 42.7245 36.2378 42.4883 36.2378 42.1734V25.6421C36.2378 25.3272 36.081 25.091 35.8459 24.9336ZM27.6946 15.5658V13.5978L29.7324 15.5658H27.6946ZM34.6702 40.8352L27.6946 36.8204C27.5378 36.7417 27.4594 36.7417 27.3027 36.7417H24.5594C23.9324 36.7417 23.4621 36.2694 23.4621 35.6396V32.1759C23.4621 31.5461 23.9324 31.0738 24.5594 31.0738H27.3027C27.4594 31.0738 27.5378 31.0738 27.6946 30.9951L34.6702 26.9803V40.8352ZM16.0162 21.9422C16.0162 21.4699 16.3297 21.155 16.8 21.155H26.5973C27.0675 21.155 27.381 21.4699 27.381 21.9422C27.381 22.4145 27.0675 22.7294 26.5973 22.7294H16.8C16.4081 22.7294 16.0162 22.4145 16.0162 21.9422ZM42.6648 37.1353C42.5864 37.5289 42.1945 37.8438 41.7243 37.7651C41.3324 37.6863 41.0188 37.214 41.0972 36.8204C41.4891 34.9311 41.4891 33.0418 41.0188 31.1525C40.9405 30.7589 41.1756 30.2866 41.5675 30.2079C41.9594 30.1292 42.4297 30.3653 42.508 30.7589C43.1351 32.8057 43.1351 35.0098 42.6648 37.1353ZM39.6864 31.31C40.0783 33.0418 40.1567 34.7737 39.7648 36.5055C39.6864 36.8991 39.2945 37.214 38.8243 37.1353C38.4324 37.0566 38.1189 36.5843 38.1972 36.1907C38.5107 34.695 38.5107 33.1993 38.1189 31.7036C38.0405 31.31 38.2756 30.8376 38.6675 30.7589C39.1378 30.6015 39.608 30.9164 39.6864 31.31ZM16.0162 26.508C16.0162 26.0357 16.3297 25.7208 16.8 25.7208H26.5973C27.0675 25.7208 27.381 26.0357 27.381 26.508C27.381 26.9803 27.0675 27.2952 26.5973 27.2952H16.8C16.4081 27.2952 16.0162 26.9803 16.0162 26.508Z" fill="white"></path>
  <defs>
    <linearGradient id="paint0_linear_1188_9809" x1="2.51591" y1="27" x2="52.6859" y2="27.1474" gradientUnits="userSpaceOnUse">
      <stop stop-color="#2733FC"></stop>
      <stop offset="1" stop-color="#630CF6"></stop>
    </linearGradient>
  </defs>
</svg>
