<?xml version="1.0" encoding="UTF-8"?>
<svg xmlns="http://www.w3.org/2000/svg" width="30" height="30" viewBox="0 0 30 30" fill="none">
  <mask id="mask0_1190_9935" style="mask-type:alpha" maskUnits="userSpaceOnUse" x="0" y="0" width="30" height="30">
    <rect width="30" height="30" fill="#D9D9D9"></rect>
  </mask>
  <g mask="url(#mask0_1190_9935)">
    <rect width="30" height="30" rx="4" fill="url(#paint0_linear_1190_9935)"></rect>
    <path d="M21.3051 14.1439C21.1508 14.0406 20.9451 14.0406 20.7908 14.1439L19.0934 15.1255V8.51292C19.0934 8.46125 19.0934 8.25461 18.9391 8.15129L15.8015 5.15498C15.7501 5.10332 15.6472 5 15.4414 5H6.64594C5.7201 5 5 5.72325 5 6.65314V20.9631C5 21.893 5.77154 22.6162 6.64594 22.6162H10.3493C10.6579 22.6162 10.8637 22.4096 10.8637 22.0996C10.8637 21.7897 10.6579 21.583 10.3493 21.583H6.64594C6.28589 21.583 6.02871 21.2731 6.02871 20.9631V6.65314C6.02871 6.29151 6.33733 6.03321 6.64594 6.03321H14.9271V8.56458C14.9271 8.87454 15.1328 9.08118 15.4414 9.08118H18.0647V15.7454L15.5443 17.1919H13.8469C13.384 17.1919 12.9725 17.3985 12.6639 17.6568H8.80624C8.49763 17.6568 8.29188 17.8635 8.29188 18.1734C8.29188 18.4834 8.49763 18.69 8.80624 18.69H12.0981V21.1697C12.0981 22.1513 12.8697 22.9262 13.8469 22.9262H15.5443L20.7908 25.9225C20.9451 26.0258 21.1508 26.0258 21.3051 25.9225C21.4594 25.8192 21.5623 25.6642 21.5623 25.4576V14.6089C21.5623 14.4022 21.4594 14.2472 21.3051 14.1439ZM15.9558 7.99631V6.7048L17.2931 7.99631H15.9558ZM20.5336 24.5793L15.9558 21.9446C15.8529 21.893 15.8015 21.893 15.6986 21.893H13.8984C13.4869 21.893 13.1783 21.583 13.1783 21.1697V18.8967C13.1783 18.4834 13.4869 18.1734 13.8984 18.1734H15.6986C15.8015 18.1734 15.8529 18.1734 15.9558 18.1218L20.5336 15.4871V24.5793ZM8.29188 12.1808C8.29188 11.8708 8.49763 11.6642 8.80624 11.6642H15.2357C15.5443 11.6642 15.7501 11.8708 15.7501 12.1808C15.7501 12.4908 15.5443 12.6974 15.2357 12.6974H8.80624C8.54906 12.6974 8.29188 12.4908 8.29188 12.1808ZM25.78 22.1513C25.7286 22.4096 25.4714 22.6162 25.1628 22.5646C24.9056 22.5129 24.6999 22.203 24.7513 21.9446C25.0085 20.7048 25.0085 19.4649 24.6999 18.2251C24.6484 17.9668 24.8027 17.6568 25.0599 17.6052C25.3171 17.5535 25.6257 17.7085 25.6771 17.9668C26.0886 19.31 26.0886 20.7565 25.78 22.1513ZM23.8255 18.3284C24.0826 19.4649 24.1341 20.6015 23.8769 21.738C23.8255 21.9963 23.5683 22.203 23.2597 22.1513C23.0025 22.0996 22.7967 21.7897 22.8482 21.5314C23.0539 20.5498 23.0539 19.5683 22.7967 18.5867C22.7453 18.3284 22.8996 18.0184 23.1568 17.9668C23.4654 17.8635 23.774 18.0701 23.8255 18.3284ZM8.29188 15.1771C8.29188 14.8672 8.49763 14.6605 8.80624 14.6605H15.2357C15.5443 14.6605 15.7501 14.8672 15.7501 15.1771C15.7501 15.4871 15.5443 15.6937 15.2357 15.6937H8.80624C8.54906 15.6937 8.29188 15.4871 8.29188 15.1771Z" fill="white" stroke="#F5F5F5" stroke-width="0.2"></path>
  </g>
  <defs>
    <linearGradient id="paint0_linear_1190_9935" x1="1.39773" y1="15" x2="29.27" y2="15.0819" gradientUnits="userSpaceOnUse">
      <stop stop-color="#2733FC"></stop>
      <stop offset="1" stop-color="#630CF6"></stop>
    </linearGradient>
  </defs>
</svg>
