<svg width="55" height="55" viewBox="0 0 55 55" fill="none" xmlns="http://www.w3.org/2000/svg">
<rect width="55" height="55" rx="14" fill="#2137FC"/>
<path d="M18.0263 15.5H36.9737C37.6437 15.5 38.2863 15.7662 38.7601 16.2399C39.2338 16.7137 39.5 17.3563 39.5 18.0263V36.9737C39.5 37.6437 39.2338 38.2863 38.7601 38.7601C38.2863 39.2338 37.6437 39.5 36.9737 39.5H18.0263C17.3563 39.5 16.7137 39.2338 16.2399 38.7601C15.7662 38.2863 15.5 37.6437 15.5 36.9737V18.0263C15.5 17.3563 15.7662 16.7137 16.2399 16.2399C16.7137 15.7662 17.3563 15.5 18.0263 15.5ZM18.6579 19.9211C18.9929 19.9211 19.3142 19.788 19.5511 19.5511C19.788 19.3142 19.9211 18.9929 19.9211 18.6579C19.9211 18.3229 19.788 18.0016 19.5511 17.7647C19.3142 17.5278 18.9929 17.3947 18.6579 17.3947C18.3229 17.3947 18.0016 17.5278 17.7647 17.7647C17.5278 18.0016 17.3947 18.3229 17.3947 18.6579C17.3947 18.9929 17.5278 19.3142 17.7647 19.5511C18.0016 19.788 18.3229 19.9211 18.6579 19.9211ZM18.6579 24.3421C18.9929 24.3421 19.3142 24.209 19.5511 23.9721C19.788 23.7352 19.9211 23.414 19.9211 23.0789C19.9211 22.7439 19.788 22.4226 19.5511 22.1858C19.3142 21.9489 18.9929 21.8158 18.6579 21.8158C18.3229 21.8158 18.0016 21.9489 17.7647 22.1858C17.5278 22.4226 17.3947 22.7439 17.3947 23.0789C17.3947 23.414 17.5278 23.7352 17.7647 23.9721C18.0016 24.209 18.3229 24.3421 18.6579 24.3421ZM18.6579 28.7632C18.9929 28.7632 19.3142 28.6301 19.5511 28.3932C19.788 28.1563 19.9211 27.835 19.9211 27.5C19.9211 27.165 19.788 26.8437 19.5511 26.6068C19.3142 26.3699 18.9929 26.2368 18.6579 26.2368C18.3229 26.2368 18.0016 26.3699 17.7647 26.6068C17.5278 26.8437 17.3947 27.165 17.3947 27.5C17.3947 27.835 17.5278 28.1563 17.7647 28.3932C18.0016 28.6301 18.3229 28.7632 18.6579 28.7632ZM18.6579 33.1842C18.8238 33.1842 18.988 33.1515 19.1413 33.0881C19.2945 33.0246 19.4338 32.9315 19.5511 32.8142C19.6684 32.6969 19.7614 32.5577 19.8249 32.4044C19.8884 32.2512 19.9211 32.0869 19.9211 31.9211C19.9211 31.7552 19.8884 31.5909 19.8249 31.4377C19.7614 31.2844 19.6684 31.1452 19.5511 31.0279C19.4338 30.9106 19.2945 30.8175 19.1413 30.754C18.988 30.6906 18.8238 30.6579 18.6579 30.6579C18.3229 30.6579 18.0016 30.791 17.7647 31.0279C17.5278 31.2648 17.3947 31.586 17.3947 31.9211C17.3947 32.2561 17.5278 32.5774 17.7647 32.8142C18.0016 33.0511 18.3229 33.1842 18.6579 33.1842ZM18.6579 37.6053C18.8238 37.6053 18.988 37.5726 19.1413 37.5091C19.2945 37.4456 19.4338 37.3526 19.5511 37.2353C19.6684 37.118 19.7614 36.9787 19.8249 36.8255C19.8884 36.6722 19.9211 36.508 19.9211 36.3421C19.9211 36.1762 19.8884 36.012 19.8249 35.8587C19.7614 35.7055 19.6684 35.5662 19.5511 35.4489C19.4338 35.3316 19.2945 35.2386 19.1413 35.1751C18.988 35.1116 18.8238 35.0789 18.6579 35.0789C18.3229 35.0789 18.0016 35.212 17.7647 35.4489C17.5278 35.6858 17.3947 36.0071 17.3947 36.3421C17.3947 36.6771 17.5278 36.9984 17.7647 37.2353C18.0016 37.4722 18.3229 37.6053 18.6579 37.6053ZM36.3421 19.9211C36.6771 19.9211 36.9984 19.788 37.2353 19.5511C37.4722 19.3142 37.6053 18.9929 37.6053 18.6579C37.6053 18.3229 37.4722 18.0016 37.2353 17.7647C36.9984 17.5278 36.6771 17.3947 36.3421 17.3947C36.0071 17.3947 35.6858 17.5278 35.4489 17.7647C35.212 18.0016 35.0789 18.3229 35.0789 18.6579C35.0789 18.9929 35.212 19.3142 35.4489 19.5511C35.6858 19.788 36.0071 19.9211 36.3421 19.9211ZM36.3421 24.3421C36.6771 24.3421 36.9984 24.209 37.2353 23.9721C37.4722 23.7352 37.6053 23.414 37.6053 23.0789C37.6053 22.7439 37.4722 22.4226 37.2353 22.1858C36.9984 21.9489 36.6771 21.8158 36.3421 21.8158C36.0071 21.8158 35.6858 21.9489 35.4489 22.1858C35.212 22.4226 35.0789 22.7439 35.0789 23.0789C35.0789 23.414 35.212 23.7352 35.4489 23.9721C35.6858 24.209 36.0071 24.3421 36.3421 24.3421ZM36.3421 28.7632C36.6771 28.7632 36.9984 28.6301 37.2353 28.3932C37.4722 28.1563 37.6053 27.835 37.6053 27.5C37.6053 27.165 37.4722 26.8437 37.2353 26.6068C36.9984 26.3699 36.6771 26.2368 36.3421 26.2368C36.0071 26.2368 35.6858 26.3699 35.4489 26.6068C35.212 26.8437 35.0789 27.165 35.0789 27.5C35.0789 27.835 35.212 28.1563 35.4489 28.3932C35.6858 28.6301 36.0071 28.7632 36.3421 28.7632ZM36.3421 33.1842C36.508 33.1842 36.6722 33.1515 36.8255 33.0881C36.9787 33.0246 37.118 32.9315 37.2353 32.8142C37.3526 32.6969 37.4456 32.5577 37.5091 32.4044C37.5726 32.2512 37.6053 32.0869 37.6053 31.9211C37.6053 31.7552 37.5726 31.5909 37.5091 31.4377C37.4456 31.2844 37.3526 31.1452 37.2353 31.0279C37.118 30.9106 36.9787 30.8175 36.8255 30.754C36.6722 30.6906 36.508 30.6579 36.3421 30.6579C36.0071 30.6579 35.6858 30.791 35.4489 31.0279C35.212 31.2648 35.0789 31.586 35.0789 31.9211C35.0789 32.2561 35.212 32.5774 35.4489 32.8142C35.6858 33.0511 36.0071 33.1842 36.3421 33.1842ZM36.3421 37.6053C36.508 37.6053 36.6722 37.5726 36.8255 37.5091C36.9787 37.4456 37.118 37.3526 37.2353 37.2353C37.3526 37.118 37.4456 36.9787 37.5091 36.8255C37.5726 36.6722 37.6053 36.508 37.6053 36.3421C37.6053 36.1762 37.5726 36.012 37.5091 35.8587C37.4456 35.7055 37.3526 35.5662 37.2353 35.4489C37.118 35.3316 36.9787 35.2386 36.8255 35.1751C36.6722 35.1116 36.508 35.0789 36.3421 35.0789C36.0071 35.0789 35.6858 35.212 35.4489 35.4489C35.212 35.6858 35.0789 36.0071 35.0789 36.3421C35.0789 36.6771 35.212 36.9984 35.4489 37.2353C35.6858 37.4722 36.0071 37.6053 36.3421 37.6053ZM24.3421 31.1859C24.3421 31.8655 24.8385 32.12 25.4518 31.7531L31.4613 28.1632C32.0739 27.7968 32.0745 27.2032 31.4613 26.8368L25.4518 23.2469C24.8392 22.8806 24.3421 23.1333 24.3421 23.8141V31.1859Z" fill="white"/>
</svg>
