<?xml version="1.0" encoding="UTF-8"?>
<svg xmlns="http://www.w3.org/2000/svg" width="54" height="54" viewBox="0 0 54 54" fill="none">
  <rect width="54" height="54" rx="8" fill="url(#paint0_linear_1189_9906)"></rect>
  <path d="M33.8363 29.3643C33.5139 29.3643 33.253 29.6254 33.253 29.9476C33.253 33.1198 30.9561 35.7003 28.1335 35.7003H26.8665C24.0439 35.7003 21.747 33.1198 21.747 29.9476C21.737 29.1835 20.5919 29.1793 20.5803 29.9476C20.5802 33.7816 23.4276 36.8965 26.9167 36.867V41.3326H25.3877C25.0653 41.3326 24.8044 41.5937 24.8044 41.9159C24.8044 42.238 25.0653 42.4992 25.3877 42.4992H29.6123C29.9347 42.4992 30.1956 42.238 30.1956 41.9159C30.1956 41.5937 29.9347 41.3326 29.6123 41.3326H28.0833V36.867C31.5723 36.8965 34.4198 33.7816 34.4197 29.9476C34.4197 29.6254 34.1588 29.3643 33.8363 29.3643Z" fill="white" stroke="white" stroke-width="0.2"></path>
  <path d="M22.6931 25.9868V28.9792C22.9605 35.7134 32.0404 35.7113 32.3067 28.9792C32.2473 27.8032 32.4928 25.3099 32.002 24.2316C30.5174 19.8686 24.5421 19.827 23.0047 24.2131C22.7979 24.7657 22.6931 25.3624 22.6931 25.9868ZM23.8598 25.9868C23.8598 25.5025 23.9395 25.0434 24.1019 24.6099C25.2593 21.2495 29.7931 21.2934 30.9019 24.6199C31.3017 25.4923 31.0915 28.0198 31.1401 28.9792C30.9534 34.1582 24.046 34.1575 23.8598 28.9791C23.8598 28.9792 23.8598 25.9868 23.8598 25.9868Z" fill="white" stroke="white" stroke-width="0.2"></path>
  <path d="M44.4167 11H10.5833C10.2609 11 10 11.2612 10 11.5833V24.4167C10 24.7388 10.2609 25 10.5833 25H21.1181C21.4405 25 21.7014 24.7388 21.7014 24.4167C21.7014 24.0945 21.4405 23.8333 21.1181 23.8333H11.1667V12.1667H43.8333V23.8333H33.8757C33.1133 23.8437 33.1057 24.9876 33.8757 25L44.4167 25C44.7391 25 45 24.7388 45 24.4167V11.5833C45 11.2612 44.7391 11 44.4167 11Z" fill="white" stroke="white" stroke-width="0.2"></path>
  <path d="M28.0834 18.5831V14.4998C28.071 13.7342 26.9296 13.7321 26.9167 14.4998L26.9167 18.5831C26.9292 19.3486 28.0706 19.3508 28.0834 18.5831Z" fill="white" stroke="white" stroke-width="0.2"></path>
  <path d="M31.3892 21.208C31.7117 21.208 31.9726 20.9468 31.9726 20.6247V16.5413C31.9726 16.2192 31.7117 15.958 31.3892 15.958C31.0668 15.958 30.8059 16.2192 30.8059 16.5413V20.6247C30.8059 20.9468 31.0668 21.208 31.3892 21.208Z" fill="white" stroke="white" stroke-width="0.2"></path>
  <path d="M35.8612 21.9861V15.1804C35.8491 14.4157 34.7075 14.412 34.6946 15.1804C34.6946 15.1804 34.6946 21.9861 34.6946 21.9861C34.7068 22.7508 35.8483 22.7545 35.8612 21.9861Z" fill="white" stroke="white" stroke-width="0.2"></path>
  <path d="M39.7499 20.6251V16.5418C39.7375 15.7762 38.5961 15.7741 38.5833 16.5418V20.6251C38.5957 21.3906 39.7371 21.3928 39.7499 20.6251Z" fill="white" stroke="white" stroke-width="0.2"></path>
  <path d="M24.194 20.6251V16.5418C24.1816 15.7762 23.0402 15.7741 23.0273 16.5418L23.0273 20.6251C23.0398 21.3906 24.1812 21.3928 24.194 20.6251Z" fill="white" stroke="white" stroke-width="0.2"></path>
  <path d="M19.1392 15.1804V21.9861C19.1513 22.7508 20.2929 22.7545 20.3058 21.9861C20.3058 21.9861 20.3058 15.1804 20.3058 15.1804C20.2936 14.4157 19.1521 14.412 19.1392 15.1804Z" fill="white" stroke="white" stroke-width="0.2"></path>
  <path d="M15.2502 16.5418V20.6251C15.2627 21.3906 16.4041 21.3928 16.4169 20.6251C16.4169 20.6251 16.4169 16.5418 16.4169 16.5418C16.4045 15.7762 15.2631 15.7741 15.2502 16.5418Z" fill="white" stroke="white" stroke-width="0.2"></path>
  <defs>
    <linearGradient id="paint0_linear_1189_9906" x1="2.51591" y1="27" x2="52.6859" y2="27.1474" gradientUnits="userSpaceOnUse">
      <stop stop-color="#2733FC"></stop>
      <stop offset="1" stop-color="#630CF6"></stop>
    </linearGradient>
  </defs>
</svg>
