<?xml version="1.0" encoding="UTF-8"?>
<svg xmlns="http://www.w3.org/2000/svg" width="30" height="30" viewBox="0 0 30 30" fill="none">
  <mask id="mask0_1190_9939" style="mask-type:alpha" maskUnits="userSpaceOnUse" x="0" y="0" width="30" height="30">
    <rect width="30" height="30" fill="#D9D9D9"></rect>
  </mask>
  <g mask="url(#mask0_1190_9939)">
    <rect width="30" height="30" rx="4" fill="url(#paint0_linear_1190_9939)"></rect>
    <path d="M19.1344 16.6602C18.9297 16.6602 18.7641 16.826 18.7641 17.0305C18.7641 19.0446 17.3057 20.6831 15.5135 20.6831H14.7091C12.9169 20.6831 11.4585 19.0446 11.4585 17.0305C11.4522 16.5454 10.7251 16.5427 10.7178 17.0306C10.7177 19.4649 12.5256 21.4426 14.7409 21.4239V24.2592H13.7701C13.5654 24.2592 13.3997 24.4251 13.3997 24.6296C13.3997 24.8341 13.5654 25 13.7701 25H16.4525C16.6572 25 16.8228 24.8341 16.8228 24.6296C16.8228 24.4251 16.6572 24.2592 16.4525 24.2592H15.4817V21.4239C17.697 21.4426 19.5049 19.4649 19.5048 17.0305C19.5048 16.826 19.3392 16.6602 19.1344 16.6602Z" fill="white" stroke="white" stroke-width="0.2"></path>
    <path d="M12.0593 14.515V16.415C12.2291 20.6908 17.9942 20.6894 18.1633 16.4149C18.1256 15.6683 18.2815 14.0852 17.9698 13.4006C17.0272 10.6304 13.2333 10.6039 12.2572 13.3888C12.1259 13.7397 12.0593 14.1186 12.0593 14.515ZM12.8001 14.515C12.8001 14.2075 12.8507 13.916 12.9538 13.6408C13.6887 11.5071 16.5673 11.535 17.2714 13.6471C17.5252 14.201 17.3917 15.8058 17.4226 16.415C17.304 19.7033 12.9183 19.7029 12.8001 16.4149C12.8001 16.415 12.8001 14.515 12.8001 14.515Z" fill="white" stroke="white" stroke-width="0.2"></path>
    <path d="M25.8522 5H4.37038C4.16566 5 4 5.16584 4 5.37038V13.5187C4 13.7232 4.16566 13.889 4.37038 13.889H11.0592C11.2639 13.889 11.4296 13.7232 11.4296 13.5187C11.4296 13.3141 11.2639 13.1483 11.0592 13.1483H4.74075V5.74075H25.4819V13.1483H19.1594C18.6754 13.1549 18.6705 13.8812 19.1594 13.889L25.8522 13.889C26.057 13.889 26.2226 13.7232 26.2226 13.5187V5.37038C26.2226 5.16584 26.057 5 25.8522 5Z" fill="white" stroke="white" stroke-width="0.2"></path>
    <path d="M15.4817 9.81512V7.22248C15.4738 6.73641 14.7491 6.73506 14.741 7.2225L14.741 9.81512C14.7489 10.3012 15.4736 10.3025 15.4817 9.81512Z" fill="white" stroke="white" stroke-width="0.2"></path>
    <path d="M17.5808 11.4809C17.7855 11.4809 17.9512 11.315 17.9512 11.1105V8.51784C17.9512 8.3133 17.7855 8.14746 17.5808 8.14746C17.3761 8.14746 17.2104 8.3133 17.2104 8.51784V11.1105C17.2104 11.315 17.3761 11.4809 17.5808 11.4809Z" fill="white" stroke="white" stroke-width="0.2"></path>
    <path d="M20.4202 11.9753V7.65408C20.4125 7.16856 19.6877 7.16621 19.6794 7.6541C19.6794 7.65408 19.6794 11.9753 19.6794 11.9753C19.6872 12.4608 20.412 12.4631 20.4202 11.9753Z" fill="white" stroke="white" stroke-width="0.2"></path>
    <path d="M22.8892 11.112V8.51935C22.8813 8.03329 22.1566 8.03193 22.1484 8.51937V11.112C22.1563 11.5981 22.881 11.5994 22.8892 11.112Z" fill="white" stroke="white" stroke-width="0.2"></path>
    <path d="M13.0122 11.112V8.51935C13.0043 8.03329 12.2796 8.03193 12.2715 8.51937L12.2715 11.112C12.2794 11.5981 13.0041 11.5994 13.0122 11.112Z" fill="white" stroke="white" stroke-width="0.2"></path>
    <path d="M9.80298 7.65409V11.9753C9.81071 12.4608 10.5355 12.4631 10.5437 11.9753C10.5437 11.9753 10.5437 7.65409 10.5437 7.65409C10.536 7.16857 9.8112 7.16621 9.80298 7.65409Z" fill="white" stroke="white" stroke-width="0.2"></path>
    <path d="M7.3335 8.51936V11.112C7.3414 11.5981 8.06609 11.5994 8.07425 11.112C8.07425 11.112 8.07425 8.51936 8.07425 8.51936C8.06635 8.03329 7.34166 8.03193 7.3335 8.51936Z" fill="white" stroke="white" stroke-width="0.2"></path>
  </g>
  <defs>
    <linearGradient id="paint0_linear_1190_9939" x1="1.39773" y1="15" x2="29.27" y2="15.0819" gradientUnits="userSpaceOnUse">
      <stop stop-color="#2733FC"></stop>
      <stop offset="1" stop-color="#630CF6"></stop>
    </linearGradient>
  </defs>
</svg>
