<svg width="55" height="55" viewBox="0 0 55 55" fill="none" xmlns="http://www.w3.org/2000/svg">
<rect width="55" height="55" rx="14" fill="url(#paint0_linear_4413_15270)"/>
<path fill-rule="evenodd" clip-rule="evenodd" d="M30.9266 15.5H18.9304C17.019 15.5 15.5 17.0459 15.5 18.9304V30.9271C15.5 32.8115 17.0153 34.3555 18.9304 34.3555C22.3074 34.3591 25.6879 34.359 29.0689 34.3588H29.069H29.069H29.0691H29.0691H29.0692H29.0692H29.0693L30.9303 34.3588C32.8443 34.3584 34.357 32.8126 34.357 30.9319V18.9293C34.3559 17.0448 32.8375 15.5 30.9266 15.5ZM36.0711 20.6445V30.9319C36.0711 33.7663 33.7779 36.0731 30.9303 36.0731H20.6429C20.6434 37.957 22.1587 39.5 24.0733 39.5H36.0695C37.9841 39.5 39.4999 37.956 39.4999 36.0714V24.0749C39.4999 22.1909 37.982 20.6455 36.0711 20.6445ZM26.375 21.7917C26.375 21.6542 26.375 21.5625 26.3292 21.4708C26.1917 20.8292 25.6417 20.4167 25 20.4167C24.3583 20.4167 23.8083 20.8292 23.6708 21.425C23.625 21.5625 23.625 21.6542 23.625 21.7917V24.5417C23.625 25.3208 24.2208 25.9167 25 25.9167C25.7792 25.9167 26.375 25.3208 26.375 24.5417V21.7917ZM27.2917 24.5417C27.2917 25.825 26.2833 26.8333 25 26.8333C23.7167 26.8333 22.7083 25.825 22.7083 24.5417V21.7917C22.7083 21.5625 22.7542 21.3792 22.8 21.1958C23.0292 20.1875 23.9458 19.5 25 19.5C26.0542 19.5 26.9708 20.1875 27.2 21.2417C27.2458 21.3792 27.2917 21.5625 27.2917 21.7917V24.5417ZM25.4583 28.6419C27.5313 28.4165 29.125 26.6783 29.125 24.5417C29.125 24.2667 28.9417 24.0833 28.6667 24.0833C28.3917 24.0833 28.2083 24.2667 28.2083 24.5417C28.2083 26.3292 26.7875 27.75 25 27.75C23.2125 27.75 21.7917 26.3292 21.7917 24.5417C21.7917 24.2667 21.6083 24.0833 21.3333 24.0833C21.0583 24.0833 20.875 24.2667 20.875 24.5417C20.875 26.6783 22.4687 28.4165 24.5417 28.6419V29.5833H23.1667C22.8917 29.5833 22.7083 29.7667 22.7083 30.0417C22.7083 30.3167 22.8917 30.5 23.1667 30.5H25H26.8333C27.1083 30.5 27.2917 30.3167 27.2917 30.0417C27.2917 29.7667 27.1083 29.5833 26.8333 29.5833H25.4583V28.6419Z" fill="white"/>
<defs>
<linearGradient id="paint0_linear_4413_15270" x1="-1.53106e-06" y1="28" x2="51.5" y2="28" gradientUnits="userSpaceOnUse">
<stop stop-color="#2329F4"/>
<stop offset="1" stop-color="#721CF6"/>
</linearGradient>
</defs>
</svg>
