<svg width="54" height="54" viewBox="0 0 54 54" fill="none" xmlns="http://www.w3.org/2000/svg">
<path d="M53.9964 14.8945C53.9932 14.3545 53.987 13.8145 53.9719 13.2747C53.9403 12.0982 53.8712 10.9116 53.662 9.74817C53.4496 8.56791 53.1033 7.46955 52.557 6.39718C52.0202 5.34325 51.3189 4.37877 50.4822 3.54263C49.6456 2.70648 48.6809 2.00566 47.6266 1.46913C46.5531 0.922914 45.4535 0.576504 44.272 0.364365C43.1085 0.155448 41.9215 0.0861751 40.745 0.0543961C40.2048 0.0397801 39.6646 0.0336149 39.1243 0.0302759C38.4828 0.0263429 37.8414 0.026676 37.2 0.026676L29.7522 0H24.1819L16.8659 0.026676C16.2232 0.026676 15.5805 0.0263429 14.9378 0.0302759C14.3964 0.0336149 13.8552 0.0397801 13.314 0.0543961C12.1347 0.0861751 10.9451 0.155511 9.77877 0.364698C8.59572 0.576765 7.49448 0.92304 6.41961 1.46887C5.36298 2.00546 4.39618 2.70635 3.55788 3.54263C2.7197 4.37871 2.01712 5.34298 1.47929 6.39677C0.931689 7.46964 0.584496 8.56863 0.371772 9.74952C0.162324 10.9125 0.092925 12.0987 0.061011 13.2747C0.046467 13.8146 0.0401761 14.3545 0.0368911 14.8945C0.0329671 15.5357 0 16.3321 0 16.9733V24.1879V29.8179L0.0332909 37.1857C0.0332909 37.8277 0.0330301 38.4697 0.0368911 39.1117C0.0401761 39.6525 0.0464669 40.1931 0.0610739 40.7336C0.0929249 41.9117 0.162459 43.1 0.372096 44.2651C0.584757 45.4468 0.931887 46.5468 1.47902 47.6204C2.01693 48.676 2.71964 49.6417 3.55788 50.479C4.39612 51.3163 5.36267 52.0181 6.4191 52.5555C7.49466 53.1022 8.59635 53.4491 9.78021 53.6614C10.9459 53.8707 12.1352 53.9403 13.314 53.9719C13.8552 53.9865 14.3965 53.9927 14.9379 53.9964C15.5806 54 16.2232 54 16.8659 54H24.248H29.8321H37.2C37.8414 54 38.4828 54 39.1243 53.9964C39.6646 53.9927 40.2048 53.9865 40.745 53.9719C41.922 53.9403 43.1093 53.8707 44.2734 53.6614C45.4542 53.4491 46.5532 53.1022 47.6261 52.5555C48.6806 52.0181 49.6456 51.3165 50.4822 50.479C51.3187 49.6417 52.0202 48.6762 52.557 47.621C53.1033 46.5467 53.4496 45.4462 53.662 44.2636C53.8712 43.0991 53.9403 41.9113 53.9725 40.7336C53.987 40.193 53.9932 39.6524 53.9964 39.1117C54 38.4697 54 37.8277 54 37.1857C54 37.1857 54 29.9479 54 29.8179V24.1819C54 24.0859 54 16.8178 54 16.8178C54 16.1768 54 15.5356 53.9964 14.8945Z" fill="#2137FC"/>
<path d="M48.8254 27.1124C48.8254 15.1209 39.1044 5.3999 27.1129 5.3999C15.1214 5.3999 5.40039 15.1209 5.40039 27.1124C5.40039 39.1039 15.1214 48.8249 27.1129 48.8249C39.1044 48.8249 48.8254 39.1039 48.8254 27.1124Z" fill="#2137FC"/>
<path fill-rule="evenodd" clip-rule="evenodd" d="M17.303 25.3864L18.1237 24.3356C18.4958 23.8592 19.1076 23.6353 19.7008 23.7584C20.1601 23.8537 20.4548 24.3019 20.3591 24.7594C20.3511 24.7972 20.3406 24.8344 20.3276 24.8709C19.6459 26.7753 19.4288 28.0332 19.6765 28.6445C20.6963 27.4376 25.9058 19.5681 27.5523 19.1946C28.1019 19.0698 28.6491 19.4126 28.7743 19.9601C28.8167 20.1453 28.8061 20.3387 28.7437 20.5183C27.188 24.9989 26.5293 27.7081 26.7677 28.6461C27.5894 27.4946 28.8098 25.9446 30.4291 23.9963C31.0373 23.2645 32.0077 22.9365 32.9374 23.1485C33.755 23.335 34.2659 24.1463 34.0789 24.9606C34.0778 24.9659 34.0765 24.9713 34.0751 24.9766C33.5117 27.3108 33.3029 28.6764 33.4486 29.0736C33.5129 29.0248 33.5782 28.9748 33.6445 28.9235C34.3872 28.3494 35.3171 28.0696 36.2546 28.1381L43.5295 28.6698L38.7096 29.2157C37.3641 29.3681 36.1316 30.0387 35.2759 31.0842L34.1225 32.4932C33.7449 32.9545 33.1648 33.2028 32.5689 33.1582C31.9769 33.1137 31.4874 32.6813 31.3727 32.1011C31.0911 30.6761 31.0459 28.994 31.2374 27.055C29.7902 29.2089 28.5345 32.3066 27.4703 36.348C27.2873 37.043 26.6568 37.5275 25.9355 37.5275C25.2468 37.5275 24.6826 36.9825 24.6614 36.2968L24.3425 25.9627L21.2581 32.0173C20.937 32.6474 20.2306 32.9837 19.5368 32.8367C18.8017 32.6809 18.1936 32.1692 17.9165 31.4733L17.5709 30.6048C17.0819 29.3759 15.978 28.4954 14.6673 28.2883C13.2257 28.0607 11.7843 27.833 10.3428 27.6053L13.5536 27.3792C15.0308 27.2751 16.3938 26.5506 17.303 25.3864Z" fill="white"/>
</svg>
