<svg width="123" height="24" viewBox="0 0 123 24" fill="none" xmlns="http://www.w3.org/2000/svg">
<path fill-rule="evenodd" clip-rule="evenodd" d="M7.12581 9.00638L7.96602 7.90735C8.34691 7.40913 8.97328 7.17495 9.58058 7.30373C10.0508 7.40343 10.3525 7.8721 10.2545 8.35053C10.2464 8.39012 10.2357 8.42911 10.2224 8.46721C9.52435 10.4589 9.30214 11.7744 9.55574 12.4137C10.5997 11.1516 15.9332 2.92138 17.6188 2.5307C18.1816 2.40026 18.7418 2.75872 18.87 3.33136C18.9133 3.52509 18.9025 3.72732 18.8387 3.9151C17.2459 8.60107 16.5715 11.4345 16.8156 12.4155C17.6568 11.2111 18.9063 9.59014 20.5641 7.55254C21.1867 6.78717 22.1802 6.44418 23.132 6.66592C23.9691 6.8609 24.4923 7.70938 24.3008 8.56104C24.2995 8.56664 24.2983 8.57223 24.2968 8.57782C23.72 11.019 23.5062 12.4472 23.6554 12.8625C23.7212 12.8115 23.7881 12.7592 23.856 12.7056C24.6163 12.1051 25.5683 11.8125 26.5282 11.8842L33.9761 12.4402L29.0416 13.0112C27.6641 13.1706 26.4023 13.8719 25.5262 14.9653L24.3453 16.4389C23.9588 16.9213 23.3648 17.181 22.7548 17.1343C22.1487 17.0879 21.6476 16.6355 21.5302 16.0288C21.2418 14.5385 21.1956 12.7793 21.3917 10.7514C19.91 13.004 18.6244 16.2437 17.5349 20.4704C17.3476 21.1972 16.7021 21.7039 15.9637 21.7039C15.2585 21.7039 14.6809 21.134 14.6592 20.4168L14.3328 9.60905L11.1749 15.9412C10.8462 16.6001 10.1231 16.9518 9.41268 16.7981C8.66007 16.6352 8.03747 16.1 7.75393 15.3722L7.40008 14.4639C6.89937 13.1787 5.7693 12.2578 4.42732 12.0413C2.95155 11.8032 1.47577 11.5651 0 11.327L3.28722 11.0905C4.79948 10.9816 6.19501 10.224 7.12581 9.00638Z" fill="#2137FC"/>
<path d="M45.7788 15.7734L48.6147 6.625H50.9975L46.9819 18H45.3959L45.7788 15.7734ZM43.1616 6.625L45.9819 15.7734L46.3881 18H44.7866L40.7866 6.625H43.1616ZM51.6066 13.8594V13.6953C51.6066 13.0755 51.6951 12.5052 51.8722 11.9844C52.0493 11.4583 52.3071 11.0026 52.6456 10.6172C52.9842 10.2318 53.3982 9.93229 53.8878 9.71875C54.3774 9.5 54.9347 9.39062 55.5597 9.39062C56.1951 9.39062 56.7576 9.5 57.2472 9.71875C57.742 9.93229 58.1586 10.2318 58.4972 10.6172C58.8357 11.0026 59.0935 11.4583 59.2706 11.9844C59.4477 12.5052 59.5363 13.0755 59.5363 13.6953V13.8594C59.5363 14.474 59.4477 15.0443 59.2706 15.5703C59.0935 16.0911 58.8357 16.5469 58.4972 16.9375C58.1586 17.3229 57.7446 17.6224 57.255 17.8359C56.7654 18.0495 56.2055 18.1562 55.5753 18.1562C54.9503 18.1562 54.3904 18.0495 53.8956 17.8359C53.4008 17.6224 52.9842 17.3229 52.6456 16.9375C52.3071 16.5469 52.0493 16.0911 51.8722 15.5703C51.6951 15.0443 51.6066 14.474 51.6066 13.8594ZM53.6691 13.6953V13.8594C53.6691 14.2292 53.7055 14.5755 53.7784 14.8984C53.8514 15.2214 53.9633 15.5052 54.1144 15.75C54.2654 15.9948 54.4607 16.1875 54.7003 16.3281C54.9451 16.4635 55.2368 16.5312 55.5753 16.5312C55.9086 16.5312 56.1951 16.4635 56.4347 16.3281C56.6743 16.1875 56.8696 15.9948 57.0206 15.75C57.1769 15.5052 57.2915 15.2214 57.3644 14.8984C57.4373 14.5755 57.4738 14.2292 57.4738 13.8594V13.6953C57.4738 13.3307 57.4373 12.9896 57.3644 12.6719C57.2915 12.349 57.1769 12.0651 57.0206 11.8203C56.8696 11.5703 56.6717 11.375 56.4269 11.2344C56.1873 11.0885 55.8982 11.0156 55.5597 11.0156C55.2264 11.0156 54.9399 11.0885 54.7003 11.2344C54.4607 11.375 54.2654 11.5703 54.1144 11.8203C53.9633 12.0651 53.8514 12.349 53.7784 12.6719C53.7055 12.9896 53.6691 13.3307 53.6691 13.6953ZM63.5438 9.54688V18H61.4734V9.54688H63.5438ZM61.3328 7.33594C61.3328 7.02865 61.437 6.77344 61.6453 6.57031C61.8589 6.36719 62.1453 6.26562 62.5047 6.26562C62.8641 6.26562 63.1479 6.36719 63.3563 6.57031C63.5698 6.77344 63.6766 7.02865 63.6766 7.33594C63.6766 7.63802 63.5698 7.89062 63.3563 8.09375C63.1479 8.29688 62.8641 8.39844 62.5047 8.39844C62.1453 8.39844 61.8589 8.29688 61.6453 8.09375C61.437 7.89062 61.3328 7.63802 61.3328 7.33594ZM69.3013 16.5312C69.5929 16.5312 69.8533 16.474 70.0825 16.3594C70.3117 16.2448 70.494 16.0833 70.6294 15.875C70.77 15.6667 70.8455 15.4245 70.8559 15.1484H72.8013C72.7908 15.7214 72.6294 16.2344 72.3169 16.6875C72.0044 17.1406 71.5877 17.5 71.0669 17.7656C70.5513 18.026 69.9731 18.1562 69.3325 18.1562C68.6815 18.1562 68.1138 18.0469 67.6294 17.8281C67.145 17.6094 66.7414 17.3047 66.4184 16.9141C66.1007 16.5234 65.8611 16.0703 65.6997 15.5547C65.5434 15.0391 65.4653 14.487 65.4653 13.8984V13.6484C65.4653 13.0599 65.5434 12.5078 65.6997 11.9922C65.8611 11.4766 66.1007 11.0234 66.4184 10.6328C66.7414 10.2422 67.145 9.9375 67.6294 9.71875C68.1138 9.5 68.6789 9.39062 69.3247 9.39062C70.007 9.39062 70.6059 9.52344 71.1216 9.78906C71.6424 10.0547 72.0486 10.4297 72.3403 10.9141C72.6372 11.3984 72.7908 11.9688 72.8013 12.625H70.8559C70.8455 12.3229 70.7778 12.0521 70.6528 11.8125C70.5278 11.5729 70.3507 11.3802 70.1216 11.2344C69.8924 11.0885 69.6138 11.0156 69.2856 11.0156C68.9367 11.0156 68.645 11.0885 68.4106 11.2344C68.1815 11.3802 68.0018 11.5807 67.8716 11.8359C67.7466 12.0859 67.658 12.3672 67.6059 12.6797C67.5591 12.987 67.5356 13.3099 67.5356 13.6484V13.8984C67.5356 14.2422 67.5591 14.5703 67.6059 14.8828C67.658 15.1953 67.7466 15.4766 67.8716 15.7266C68.0018 15.9714 68.1815 16.1667 68.4106 16.3125C68.645 16.4583 68.9419 16.5312 69.3013 16.5312ZM78.2931 18.1562C77.6525 18.1562 77.077 18.0521 76.5666 17.8438C76.0561 17.6354 75.6213 17.3464 75.2619 16.9766C74.9077 16.6016 74.6343 16.1667 74.4416 15.6719C74.2541 15.1719 74.1603 14.6354 74.1603 14.0625V13.75C74.1603 13.099 74.2541 12.5078 74.4416 11.9766C74.6291 11.4401 74.8947 10.9792 75.2384 10.5938C75.5822 10.2083 75.9936 9.91146 76.4728 9.70312C76.952 9.49479 77.4806 9.39062 78.0588 9.39062C78.6577 9.39062 79.1864 9.49219 79.6447 9.69531C80.103 9.89323 80.4858 10.1745 80.7931 10.5391C81.1004 10.9036 81.3322 11.3411 81.4884 11.8516C81.6447 12.3568 81.7228 12.9167 81.7228 13.5312V14.3984H75.0978V12.9766H79.6916V12.8203C79.6811 12.4922 79.6186 12.1927 79.5041 11.9219C79.3895 11.6458 79.2124 11.4271 78.9728 11.2656C78.7332 11.099 78.4233 11.0156 78.0431 11.0156C77.7358 11.0156 77.4676 11.0833 77.2384 11.2188C77.0145 11.349 76.827 11.5365 76.6759 11.7812C76.5301 12.0208 76.4207 12.3073 76.3478 12.6406C76.2749 12.974 76.2384 13.3438 76.2384 13.75V14.0625C76.2384 14.4167 76.2853 14.7448 76.3791 15.0469C76.478 15.349 76.6213 15.612 76.8088 15.8359C77.0015 16.0547 77.2306 16.2266 77.4963 16.3516C77.7671 16.4714 78.0744 16.5312 78.4181 16.5312C78.8504 16.5312 79.241 16.4479 79.59 16.2812C79.9442 16.1094 80.2515 15.8568 80.5119 15.5234L81.5509 16.6016C81.3739 16.862 81.1343 17.112 80.8322 17.3516C80.5353 17.5911 80.1759 17.7865 79.7541 17.9375C79.3322 18.0833 78.8452 18.1562 78.2931 18.1562ZM85.4491 11.3516V18H83.3866V9.54688H85.3241L85.4491 11.3516ZM85.1209 13.4688H84.5116C84.5168 12.8542 84.6001 12.2969 84.7616 11.7969C84.923 11.2969 85.1496 10.8672 85.4412 10.5078C85.7381 10.1484 86.0897 9.8724 86.4959 9.67969C86.9022 9.48698 87.3553 9.39062 87.8553 9.39062C88.2616 9.39062 88.6287 9.44792 88.9569 9.5625C89.285 9.67708 89.5662 9.85938 89.8006 10.1094C90.0402 10.3594 90.2225 10.6875 90.3475 11.0938C90.4777 11.4948 90.5428 11.9896 90.5428 12.5781V18H88.4647V12.5625C88.4647 12.1771 88.4074 11.8724 88.2928 11.6484C88.1834 11.4245 88.022 11.2656 87.8084 11.1719C87.6001 11.0781 87.3423 11.0312 87.035 11.0312C86.7173 11.0312 86.4386 11.0964 86.1991 11.2266C85.9647 11.3516 85.7668 11.526 85.6053 11.75C85.4491 11.974 85.3293 12.2318 85.2459 12.5234C85.1626 12.8151 85.1209 13.1302 85.1209 13.4688ZM97.3394 16.2031V12.3047C97.3394 12.0182 97.2899 11.7708 97.1909 11.5625C97.092 11.3542 96.9409 11.1927 96.7378 11.0781C96.5347 10.9635 96.2769 10.9062 95.9644 10.9062C95.6883 10.9062 95.4461 10.9531 95.2378 11.0469C95.0347 11.1406 94.8784 11.2734 94.7691 11.4453C94.6597 11.612 94.605 11.8047 94.605 12.0234H92.5347C92.5347 11.6745 92.618 11.3438 92.7847 11.0312C92.9514 10.7135 93.1883 10.4323 93.4956 10.1875C93.8081 9.9375 94.1805 9.74219 94.6128 9.60156C95.0503 9.46094 95.5399 9.39062 96.0816 9.39062C96.7222 9.39062 97.2925 9.5 97.7925 9.71875C98.2977 9.93229 98.6935 10.2552 98.98 10.6875C99.2717 11.1198 99.4175 11.6641 99.4175 12.3203V16.0078C99.4175 16.4297 99.4435 16.7917 99.4956 17.0938C99.5529 17.3906 99.6362 17.6484 99.7456 17.8672V18H97.6441C97.5451 17.7865 97.4696 17.5156 97.4175 17.1875C97.3654 16.8542 97.3394 16.526 97.3394 16.2031ZM97.6284 12.8516L97.6441 14.0781H96.3394C96.0165 14.0781 95.7326 14.112 95.4878 14.1797C95.243 14.2422 95.0425 14.3359 94.8862 14.4609C94.73 14.5807 94.6128 14.7266 94.5347 14.8984C94.4566 15.0651 94.4175 15.2552 94.4175 15.4688C94.4175 15.6771 94.4644 15.8646 94.5581 16.0312C94.6571 16.1979 94.7977 16.3307 94.98 16.4297C95.1675 16.5234 95.3862 16.5703 95.6362 16.5703C96.0008 16.5703 96.3185 16.4974 96.5894 16.3516C96.8602 16.2005 97.0711 16.0182 97.2222 15.8047C97.3732 15.5911 97.454 15.388 97.4644 15.1953L98.0581 16.0859C97.9852 16.2995 97.8758 16.526 97.73 16.7656C97.5842 17.0052 97.3967 17.2292 97.1675 17.4375C96.9383 17.6458 96.6623 17.8177 96.3394 17.9531C96.0165 18.0885 95.6415 18.1562 95.2144 18.1562C94.6675 18.1562 94.1779 18.0469 93.7456 17.8281C93.3133 17.6094 92.9722 17.3099 92.7222 16.9297C92.4722 16.5495 92.3472 16.1172 92.3472 15.6328C92.3472 15.1849 92.4305 14.7891 92.5972 14.4453C92.7639 14.1016 93.0112 13.8125 93.3394 13.5781C93.6675 13.3385 94.0737 13.1589 94.5581 13.0391C95.0477 12.9141 95.6076 12.8516 96.2378 12.8516H97.6284ZM105.597 9.54688V11.0312H100.753V9.54688H105.597ZM102.05 7.46875H104.12V15.5625C104.12 15.8125 104.154 16.0052 104.222 16.1406C104.29 16.276 104.391 16.3672 104.527 16.4141C104.662 16.4609 104.823 16.4844 105.011 16.4844C105.146 16.4844 105.271 16.4766 105.386 16.4609C105.501 16.4453 105.597 16.4297 105.675 16.4141L105.683 17.9609C105.511 18.0182 105.316 18.0651 105.097 18.1016C104.883 18.138 104.641 18.1562 104.37 18.1562C103.907 18.1562 103.501 18.0781 103.152 17.9219C102.803 17.7604 102.532 17.5026 102.339 17.1484C102.146 16.7891 102.05 16.3151 102.05 15.7266V7.46875ZM106.722 13.8594V13.6953C106.722 13.0755 106.81 12.5052 106.987 11.9844C107.164 11.4583 107.422 11.0026 107.761 10.6172C108.099 10.2318 108.513 9.93229 109.003 9.71875C109.492 9.5 110.05 9.39062 110.675 9.39062C111.31 9.39062 111.873 9.5 112.362 9.71875C112.857 9.93229 113.274 10.2318 113.612 10.6172C113.951 11.0026 114.209 11.4583 114.386 11.9844C114.563 12.5052 114.651 13.0755 114.651 13.6953V13.8594C114.651 14.474 114.563 15.0443 114.386 15.5703C114.209 16.0911 113.951 16.5469 113.612 16.9375C113.274 17.3229 112.86 17.6224 112.37 17.8359C111.88 18.0495 111.321 18.1562 110.69 18.1562C110.065 18.1562 109.505 18.0495 109.011 17.8359C108.516 17.6224 108.099 17.3229 107.761 16.9375C107.422 16.5469 107.164 16.0911 106.987 15.5703C106.81 15.0443 106.722 14.474 106.722 13.8594ZM108.784 13.6953V13.8594C108.784 14.2292 108.821 14.5755 108.893 14.8984C108.966 15.2214 109.078 15.5052 109.229 15.75C109.38 15.9948 109.576 16.1875 109.815 16.3281C110.06 16.4635 110.352 16.5312 110.69 16.5312C111.024 16.5312 111.31 16.4635 111.55 16.3281C111.789 16.1875 111.985 15.9948 112.136 15.75C112.292 15.5052 112.406 15.2214 112.479 14.8984C112.552 14.5755 112.589 14.2292 112.589 13.8594V13.6953C112.589 13.3307 112.552 12.9896 112.479 12.6719C112.406 12.349 112.292 12.0651 112.136 11.8203C111.985 11.5703 111.787 11.375 111.542 11.2344C111.302 11.0885 111.013 11.0156 110.675 11.0156C110.341 11.0156 110.055 11.0885 109.815 11.2344C109.576 11.375 109.38 11.5703 109.229 11.8203C109.078 12.0651 108.966 12.349 108.893 12.6719C108.821 12.9896 108.784 13.3307 108.784 13.6953ZM118.534 11.2734V18H116.471V9.54688H118.424L118.534 11.2734ZM121.104 9.49219L121.073 11.4141C120.958 11.3932 120.828 11.3776 120.682 11.3672C120.542 11.3568 120.409 11.3516 120.284 11.3516C119.966 11.3516 119.687 11.3958 119.448 11.4844C119.208 11.5677 119.008 11.6901 118.846 11.8516C118.69 12.013 118.57 12.2109 118.487 12.4453C118.404 12.6745 118.357 12.9349 118.346 13.2266L117.901 13.1719C117.901 12.6354 117.956 12.138 118.065 11.6797C118.174 11.2214 118.333 10.8203 118.542 10.4766C118.75 10.1328 119.01 9.86719 119.323 9.67969C119.641 9.48698 120.005 9.39062 120.417 9.39062C120.531 9.39062 120.654 9.40104 120.784 9.42188C120.919 9.4375 121.026 9.46094 121.104 9.49219Z" fill="black"/>
</svg>
