<svg width="123" height="24" viewBox="0 0 123 24" fill="none" xmlns="http://www.w3.org/2000/svg">
<path fill-rule="evenodd" clip-rule="evenodd" d="M7.12581 9.00638L7.96602 7.90735C8.34691 7.40913 8.97328 7.17495 9.58058 7.30373C10.0508 7.40343 10.3525 7.8721 10.2545 8.35053C10.2464 8.39012 10.2357 8.42911 10.2224 8.46721C9.52435 10.4589 9.30214 11.7744 9.55574 12.4137C10.5997 11.1516 15.9332 2.92138 17.6188 2.5307C18.1816 2.40026 18.7418 2.75872 18.87 3.33136C18.9133 3.52509 18.9025 3.72732 18.8387 3.9151C17.2459 8.60107 16.5715 11.4345 16.8156 12.4155C17.6568 11.2111 18.9063 9.59014 20.5641 7.55254C21.1867 6.78717 22.1802 6.44418 23.132 6.66592C23.9691 6.8609 24.4923 7.70938 24.3008 8.56104C24.2995 8.56664 24.2983 8.57223 24.2968 8.57782C23.72 11.019 23.5062 12.4472 23.6554 12.8625C23.7212 12.8115 23.7881 12.7592 23.856 12.7056C24.6163 12.1051 25.5683 11.8125 26.5282 11.8842L33.9761 12.4402L29.0416 13.0112C27.6641 13.1706 26.4023 13.8719 25.5262 14.9653L24.3453 16.4389C23.9588 16.9213 23.3648 17.181 22.7548 17.1343C22.1487 17.0879 21.6476 16.6355 21.5302 16.0288C21.2418 14.5385 21.1956 12.7793 21.3917 10.7514C19.91 13.004 18.6244 16.2437 17.5349 20.4704C17.3476 21.1972 16.7021 21.7039 15.9637 21.7039C15.2585 21.7039 14.6809 21.134 14.6592 20.4168L14.3328 9.60905L11.1749 15.9412C10.8462 16.6001 10.1231 16.9518 9.41268 16.7981C8.66007 16.6352 8.03747 16.1 7.75393 15.3722L7.40008 14.4639C6.89937 13.1787 5.7693 12.2578 4.42732 12.0413C2.95155 11.8032 1.47577 11.5651 0 11.327L3.28722 11.0905C4.79948 10.9816 6.19501 10.224 7.12581 9.00638Z" fill="#2137FC"/>
<path d="M46.1948 15.7734L49.0308 6.625H51.4136L47.3979 18H45.812L46.1948 15.7734ZM43.5776 6.625L46.3979 15.7734L46.8042 18H45.2026L41.2026 6.625H43.5776ZM51.7026 13.8594V13.6953C51.7026 13.0755 51.7912 12.5052 51.9683 11.9844C52.1453 11.4583 52.4032 11.0026 52.7417 10.6172C53.0802 10.2318 53.4943 9.93229 53.9839 9.71875C54.4735 9.5 55.0308 9.39062 55.6558 9.39062C56.2912 9.39062 56.8537 9.5 57.3433 9.71875C57.8381 9.93229 58.2547 10.2318 58.5933 10.6172C58.9318 11.0026 59.1896 11.4583 59.3667 11.9844C59.5438 12.5052 59.6323 13.0755 59.6323 13.6953V13.8594C59.6323 14.474 59.5438 15.0443 59.3667 15.5703C59.1896 16.0911 58.9318 16.5469 58.5933 16.9375C58.2547 17.3229 57.8407 17.6224 57.3511 17.8359C56.8615 18.0495 56.3016 18.1562 55.6714 18.1562C55.0464 18.1562 54.4865 18.0495 53.9917 17.8359C53.4969 17.6224 53.0802 17.3229 52.7417 16.9375C52.4032 16.5469 52.1453 16.0911 51.9683 15.5703C51.7912 15.0443 51.7026 14.474 51.7026 13.8594ZM53.7651 13.6953V13.8594C53.7651 14.2292 53.8016 14.5755 53.8745 14.8984C53.9474 15.2214 54.0594 15.5052 54.2104 15.75C54.3615 15.9948 54.5568 16.1875 54.7964 16.3281C55.0412 16.4635 55.3328 16.5312 55.6714 16.5312C56.0047 16.5312 56.2912 16.4635 56.5308 16.3281C56.7703 16.1875 56.9657 15.9948 57.1167 15.75C57.2729 15.5052 57.3875 15.2214 57.4604 14.8984C57.5334 14.5755 57.5698 14.2292 57.5698 13.8594V13.6953C57.5698 13.3307 57.5334 12.9896 57.4604 12.6719C57.3875 12.349 57.2729 12.0651 57.1167 11.8203C56.9657 11.5703 56.7677 11.375 56.5229 11.2344C56.2834 11.0885 55.9943 11.0156 55.6558 11.0156C55.3224 11.0156 55.036 11.0885 54.7964 11.2344C54.5568 11.375 54.3615 11.5703 54.2104 11.8203C54.0594 12.0651 53.9474 12.349 53.8745 12.6719C53.8016 12.9896 53.7651 13.3307 53.7651 13.6953ZM63.3198 9.54688V18H61.2495V9.54688H63.3198ZM61.1089 7.33594C61.1089 7.02865 61.2131 6.77344 61.4214 6.57031C61.6349 6.36719 61.9214 6.26562 62.2808 6.26562C62.6401 6.26562 62.924 6.36719 63.1323 6.57031C63.3459 6.77344 63.4526 7.02865 63.4526 7.33594C63.4526 7.63802 63.3459 7.89062 63.1323 8.09375C62.924 8.29688 62.6401 8.39844 62.2808 8.39844C61.9214 8.39844 61.6349 8.29688 61.4214 8.09375C61.2131 7.89062 61.1089 7.63802 61.1089 7.33594ZM68.7573 16.5312C69.049 16.5312 69.3094 16.474 69.5386 16.3594C69.7677 16.2448 69.95 16.0833 70.0854 15.875C70.2261 15.6667 70.3016 15.4245 70.312 15.1484H72.2573C72.2469 15.7214 72.0854 16.2344 71.7729 16.6875C71.4604 17.1406 71.0438 17.5 70.5229 17.7656C70.0073 18.026 69.4292 18.1562 68.7886 18.1562C68.1375 18.1562 67.5698 18.0469 67.0854 17.8281C66.6011 17.6094 66.1974 17.3047 65.8745 16.9141C65.5568 16.5234 65.3172 16.0703 65.1558 15.5547C64.9995 15.0391 64.9214 14.487 64.9214 13.8984V13.6484C64.9214 13.0599 64.9995 12.5078 65.1558 11.9922C65.3172 11.4766 65.5568 11.0234 65.8745 10.6328C66.1974 10.2422 66.6011 9.9375 67.0854 9.71875C67.5698 9.5 68.1349 9.39062 68.7808 9.39062C69.4631 9.39062 70.062 9.52344 70.5776 9.78906C71.0985 10.0547 71.5047 10.4297 71.7964 10.9141C72.0933 11.3984 72.2469 11.9688 72.2573 12.625H70.312C70.3016 12.3229 70.2339 12.0521 70.1089 11.8125C69.9839 11.5729 69.8068 11.3802 69.5776 11.2344C69.3485 11.0885 69.0698 11.0156 68.7417 11.0156C68.3927 11.0156 68.1011 11.0885 67.8667 11.2344C67.6375 11.3802 67.4578 11.5807 67.3276 11.8359C67.2026 12.0859 67.1141 12.3672 67.062 12.6797C67.0151 12.987 66.9917 13.3099 66.9917 13.6484V13.8984C66.9917 14.2422 67.0151 14.5703 67.062 14.8828C67.1141 15.1953 67.2026 15.4766 67.3276 15.7266C67.4578 15.9714 67.6375 16.1667 67.8667 16.3125C68.1011 16.4583 68.3979 16.5312 68.7573 16.5312ZM77.4292 18.1562C76.7886 18.1562 76.2131 18.0521 75.7026 17.8438C75.1922 17.6354 74.7573 17.3464 74.3979 16.9766C74.0438 16.6016 73.7703 16.1667 73.5776 15.6719C73.3901 15.1719 73.2964 14.6354 73.2964 14.0625V13.75C73.2964 13.099 73.3901 12.5078 73.5776 11.9766C73.7651 11.4401 74.0308 10.9792 74.3745 10.5938C74.7183 10.2083 75.1297 9.91146 75.6089 9.70312C76.0881 9.49479 76.6167 9.39062 77.1948 9.39062C77.7938 9.39062 78.3224 9.49219 78.7808 9.69531C79.2391 9.89323 79.6219 10.1745 79.9292 10.5391C80.2365 10.9036 80.4683 11.3411 80.6245 11.8516C80.7808 12.3568 80.8589 12.9167 80.8589 13.5312V14.3984H74.2339V12.9766H78.8276V12.8203C78.8172 12.4922 78.7547 12.1927 78.6401 11.9219C78.5256 11.6458 78.3485 11.4271 78.1089 11.2656C77.8693 11.099 77.5594 11.0156 77.1792 11.0156C76.8719 11.0156 76.6037 11.0833 76.3745 11.2188C76.1506 11.349 75.9631 11.5365 75.812 11.7812C75.6662 12.0208 75.5568 12.3073 75.4839 12.6406C75.411 12.974 75.3745 13.3438 75.3745 13.75V14.0625C75.3745 14.4167 75.4214 14.7448 75.5151 15.0469C75.6141 15.349 75.7573 15.612 75.9448 15.8359C76.1375 16.0547 76.3667 16.2266 76.6323 16.3516C76.9032 16.4714 77.2104 16.5312 77.5542 16.5312C77.9865 16.5312 78.3771 16.4479 78.7261 16.2812C79.0802 16.1094 79.3875 15.8568 79.6479 15.5234L80.687 16.6016C80.5099 16.862 80.2703 17.112 79.9683 17.3516C79.6714 17.5911 79.312 17.7865 78.8901 17.9375C78.4683 18.0833 77.9813 18.1562 77.4292 18.1562ZM84.2651 11.3516V18H82.2026V9.54688H84.1401L84.2651 11.3516ZM83.937 13.4688H83.3276C83.3328 12.8542 83.4162 12.2969 83.5776 11.7969C83.7391 11.2969 83.9657 10.8672 84.2573 10.5078C84.5542 10.1484 84.9058 9.8724 85.312 9.67969C85.7183 9.48698 86.1714 9.39062 86.6714 9.39062C87.0776 9.39062 87.4448 9.44792 87.7729 9.5625C88.1011 9.67708 88.3823 9.85938 88.6167 10.1094C88.8563 10.3594 89.0386 10.6875 89.1636 11.0938C89.2938 11.4948 89.3589 11.9896 89.3589 12.5781V18H87.2808V12.5625C87.2808 12.1771 87.2235 11.8724 87.1089 11.6484C86.9995 11.4245 86.8381 11.2656 86.6245 11.1719C86.4162 11.0781 86.1584 11.0312 85.8511 11.0312C85.5334 11.0312 85.2547 11.0964 85.0151 11.2266C84.7808 11.3516 84.5828 11.526 84.4214 11.75C84.2651 11.974 84.1453 12.2318 84.062 12.5234C83.9787 12.8151 83.937 13.1302 83.937 13.4688ZM95.8354 16.2031V12.3047C95.8354 12.0182 95.786 11.7708 95.687 11.5625C95.5881 11.3542 95.437 11.1927 95.2339 11.0781C95.0308 10.9635 94.7729 10.9062 94.4604 10.9062C94.1844 10.9062 93.9422 10.9531 93.7339 11.0469C93.5308 11.1406 93.3745 11.2734 93.2651 11.4453C93.1558 11.612 93.1011 11.8047 93.1011 12.0234H91.0308C91.0308 11.6745 91.1141 11.3438 91.2808 11.0312C91.4474 10.7135 91.6844 10.4323 91.9917 10.1875C92.3042 9.9375 92.6766 9.74219 93.1089 9.60156C93.5464 9.46094 94.036 9.39062 94.5776 9.39062C95.2183 9.39062 95.7886 9.5 96.2886 9.71875C96.7938 9.93229 97.1896 10.2552 97.4761 10.6875C97.7677 11.1198 97.9136 11.6641 97.9136 12.3203V16.0078C97.9136 16.4297 97.9396 16.7917 97.9917 17.0938C98.049 17.3906 98.1323 17.6484 98.2417 17.8672V18H96.1401C96.0412 17.7865 95.9657 17.5156 95.9136 17.1875C95.8615 16.8542 95.8354 16.526 95.8354 16.2031ZM96.1245 12.8516L96.1401 14.0781H94.8354C94.5125 14.0781 94.2287 14.112 93.9839 14.1797C93.7391 14.2422 93.5386 14.3359 93.3823 14.4609C93.2261 14.5807 93.1089 14.7266 93.0308 14.8984C92.9526 15.0651 92.9136 15.2552 92.9136 15.4688C92.9136 15.6771 92.9604 15.8646 93.0542 16.0312C93.1532 16.1979 93.2938 16.3307 93.4761 16.4297C93.6636 16.5234 93.8823 16.5703 94.1323 16.5703C94.4969 16.5703 94.8146 16.4974 95.0854 16.3516C95.3563 16.2005 95.5672 16.0182 95.7183 15.8047C95.8693 15.5911 95.95 15.388 95.9604 15.1953L96.5542 16.0859C96.4813 16.2995 96.3719 16.526 96.2261 16.7656C96.0802 17.0052 95.8927 17.2292 95.6636 17.4375C95.4344 17.6458 95.1584 17.8177 94.8354 17.9531C94.5125 18.0885 94.1375 18.1562 93.7104 18.1562C93.1636 18.1562 92.674 18.0469 92.2417 17.8281C91.8094 17.6094 91.4683 17.3099 91.2183 16.9297C90.9683 16.5495 90.8433 16.1172 90.8433 15.6328C90.8433 15.1849 90.9266 14.7891 91.0933 14.4453C91.2599 14.1016 91.5073 13.8125 91.8354 13.5781C92.1636 13.3385 92.5698 13.1589 93.0542 13.0391C93.5438 12.9141 94.1037 12.8516 94.7339 12.8516H96.1245ZM103.773 9.54688V11.0312H98.9292V9.54688H103.773ZM100.226 7.46875H102.296V15.5625C102.296 15.8125 102.33 16.0052 102.398 16.1406C102.466 16.276 102.567 16.3672 102.703 16.4141C102.838 16.4609 103 16.4844 103.187 16.4844C103.322 16.4844 103.447 16.4766 103.562 16.4609C103.677 16.4453 103.773 16.4297 103.851 16.4141L103.859 17.9609C103.687 18.0182 103.492 18.0651 103.273 18.1016C103.059 18.138 102.817 18.1562 102.546 18.1562C102.083 18.1562 101.677 18.0781 101.328 17.9219C100.979 17.7604 100.708 17.5026 100.515 17.1484C100.322 16.7891 100.226 16.3151 100.226 15.7266V7.46875ZM104.578 13.8594V13.6953C104.578 13.0755 104.666 12.5052 104.843 11.9844C105.02 11.4583 105.278 11.0026 105.617 10.6172C105.955 10.2318 106.369 9.93229 106.859 9.71875C107.348 9.5 107.906 9.39062 108.531 9.39062C109.166 9.39062 109.729 9.5 110.218 9.71875C110.713 9.93229 111.13 10.2318 111.468 10.6172C111.807 11.0026 112.065 11.4583 112.242 11.9844C112.419 12.5052 112.507 13.0755 112.507 13.6953V13.8594C112.507 14.474 112.419 15.0443 112.242 15.5703C112.065 16.0911 111.807 16.5469 111.468 16.9375C111.13 17.3229 110.716 17.6224 110.226 17.8359C109.736 18.0495 109.177 18.1562 108.546 18.1562C107.921 18.1562 107.361 18.0495 106.867 17.8359C106.372 17.6224 105.955 17.3229 105.617 16.9375C105.278 16.5469 105.02 16.0911 104.843 15.5703C104.666 15.0443 104.578 14.474 104.578 13.8594ZM106.64 13.6953V13.8594C106.64 14.2292 106.677 14.5755 106.75 14.8984C106.822 15.2214 106.934 15.5052 107.085 15.75C107.236 15.9948 107.432 16.1875 107.671 16.3281C107.916 16.4635 108.208 16.5312 108.546 16.5312C108.88 16.5312 109.166 16.4635 109.406 16.3281C109.645 16.1875 109.841 15.9948 109.992 15.75C110.148 15.5052 110.263 15.2214 110.335 14.8984C110.408 14.5755 110.445 14.2292 110.445 13.8594V13.6953C110.445 13.3307 110.408 12.9896 110.335 12.6719C110.263 12.349 110.148 12.0651 109.992 11.8203C109.841 11.5703 109.643 11.375 109.398 11.2344C109.158 11.0885 108.869 11.0156 108.531 11.0156C108.197 11.0156 107.911 11.0885 107.671 11.2344C107.432 11.375 107.236 11.5703 107.085 11.8203C106.934 12.0651 106.822 12.349 106.75 12.6719C106.677 12.9896 106.64 13.3307 106.64 13.6953ZM116.07 11.2734V18H114.007V9.54688H115.96L116.07 11.2734ZM118.64 9.49219L118.609 11.4141C118.494 11.3932 118.364 11.3776 118.218 11.3672C118.078 11.3568 117.945 11.3516 117.82 11.3516C117.502 11.3516 117.223 11.3958 116.984 11.4844C116.744 11.5677 116.544 11.6901 116.382 11.8516C116.226 12.013 116.106 12.2109 116.023 12.4453C115.94 12.6745 115.893 12.9349 115.882 13.2266L115.437 13.1719C115.437 12.6354 115.492 12.138 115.601 11.6797C115.71 11.2214 115.869 10.8203 116.078 10.4766C116.286 10.1328 116.546 9.86719 116.859 9.67969C117.177 9.48698 117.541 9.39062 117.953 9.39062C118.067 9.39062 118.19 9.40104 118.32 9.42188C118.455 9.4375 118.562 9.46094 118.64 9.49219Z" fill="black"/>
</svg>
