<svg width="123" height="24" viewBox="0 0 123 24" fill="none" xmlns="http://www.w3.org/2000/svg">
<path fill-rule="evenodd" clip-rule="evenodd" d="M7.12581 9.00638L7.96602 7.90735C8.34691 7.40913 8.97328 7.17495 9.58058 7.30373C10.0508 7.40343 10.3525 7.8721 10.2545 8.35053C10.2464 8.39012 10.2357 8.42911 10.2224 8.46721C9.52435 10.4589 9.30214 11.7744 9.55574 12.4137C10.5997 11.1516 15.9332 2.92138 17.6188 2.5307C18.1816 2.40026 18.7418 2.75872 18.87 3.33136C18.9133 3.52509 18.9025 3.72732 18.8387 3.9151C17.2459 8.60107 16.5715 11.4345 16.8156 12.4155C17.6568 11.2111 18.9063 9.59014 20.5641 7.55254C21.1867 6.78717 22.1802 6.44418 23.132 6.66592C23.9691 6.8609 24.4923 7.70938 24.3008 8.56104C24.2995 8.56664 24.2983 8.57223 24.2968 8.57782C23.72 11.019 23.5062 12.4472 23.6554 12.8625C23.7212 12.8115 23.7881 12.7592 23.856 12.7056C24.6163 12.1051 25.5683 11.8125 26.5282 11.8842L33.9761 12.4402L29.0416 13.0112C27.6641 13.1706 26.4023 13.8719 25.5262 14.9653L24.3453 16.4389C23.9588 16.9213 23.3648 17.181 22.7548 17.1343C22.1487 17.0879 21.6476 16.6355 21.5302 16.0288C21.2418 14.5385 21.1956 12.7793 21.3917 10.7514C19.91 13.004 18.6244 16.2437 17.5349 20.4704C17.3476 21.1972 16.7021 21.7039 15.9637 21.7039C15.2585 21.7039 14.6809 21.134 14.6592 20.4168L14.3328 9.60905L11.1749 15.9412C10.8462 16.6001 10.1231 16.9518 9.41268 16.7981C8.66007 16.6352 8.03747 16.1 7.75393 15.3722L7.40008 14.4639C6.89937 13.1787 5.7693 12.2578 4.42732 12.0413C2.95155 11.8032 1.47577 11.5651 0 11.327L3.28722 11.0905C4.79948 10.9816 6.19501 10.224 7.12581 9.00638Z" fill="#2137FC"/>
<path d="M43.8803 15.9219L46.8725 6.625H49.0366L44.9584 18H43.4975L43.8803 15.9219ZM41.1147 6.625L44.0834 15.9219L44.4897 18H43.0209L38.9584 6.625H41.1147ZM49.7238 13.8672V13.6875C49.7238 13.0781 49.8123 12.513 49.9894 11.9922C50.1665 11.4661 50.4217 11.0104 50.755 10.625C51.0935 10.2344 51.505 9.93229 51.9894 9.71875C52.479 9.5 53.031 9.39062 53.6456 9.39062C54.2654 9.39062 54.8175 9.5 55.3019 9.71875C55.7915 9.93229 56.2055 10.2344 56.5441 10.625C56.8826 11.0104 57.1404 11.4661 57.3175 11.9922C57.4946 12.513 57.5831 13.0781 57.5831 13.6875V13.8672C57.5831 14.4766 57.4946 15.0417 57.3175 15.5625C57.1404 16.0833 56.8826 16.5391 56.5441 16.9297C56.2055 17.3151 55.7941 17.6172 55.3097 17.8359C54.8253 18.0495 54.2758 18.1562 53.6613 18.1562C53.0415 18.1562 52.4868 18.0495 51.9972 17.8359C51.5128 17.6172 51.1014 17.3151 50.7628 16.9297C50.4243 16.5391 50.1665 16.0833 49.9894 15.5625C49.8123 15.0417 49.7238 14.4766 49.7238 13.8672ZM51.6066 13.6875V13.8672C51.6066 14.2474 51.6456 14.6068 51.7238 14.9453C51.8019 15.2839 51.9243 15.5807 52.0909 15.8359C52.2576 16.0911 52.4711 16.2917 52.7316 16.4375C52.992 16.5833 53.3019 16.6562 53.6613 16.6562C54.0102 16.6562 54.3123 16.5833 54.5675 16.4375C54.8279 16.2917 55.0415 16.0911 55.2081 15.8359C55.3748 15.5807 55.4972 15.2839 55.5753 14.9453C55.6586 14.6068 55.7003 14.2474 55.7003 13.8672V13.6875C55.7003 13.3125 55.6586 12.9583 55.5753 12.625C55.4972 12.2865 55.3722 11.987 55.2003 11.7266C55.0336 11.4661 54.8201 11.263 54.5597 11.1172C54.3045 10.9661 53.9998 10.8906 53.6456 10.8906C53.2915 10.8906 52.9842 10.9661 52.7238 11.1172C52.4685 11.263 52.2576 11.4661 52.0909 11.7266C51.9243 11.987 51.8019 12.2865 51.7238 12.625C51.6456 12.9583 51.6066 13.3125 51.6066 13.6875ZM61.4969 9.54688V18H59.6063V9.54688H61.4969ZM59.4813 7.32812C59.4813 7.04167 59.575 6.80469 59.7625 6.61719C59.9552 6.42448 60.2208 6.32812 60.5594 6.32812C60.8927 6.32812 61.1557 6.42448 61.3484 6.61719C61.5411 6.80469 61.6375 7.04167 61.6375 7.32812C61.6375 7.60938 61.5411 7.84375 61.3484 8.03125C61.1557 8.21875 60.8927 8.3125 60.5594 8.3125C60.2208 8.3125 59.9552 8.21875 59.7625 8.03125C59.575 7.84375 59.4813 7.60938 59.4813 7.32812ZM67.3325 16.6562C67.6398 16.6562 67.9158 16.5964 68.1606 16.4766C68.4106 16.3516 68.6111 16.1797 68.7622 15.9609C68.9184 15.7422 69.0044 15.4896 69.02 15.2031H70.7934C70.783 15.75 70.6216 16.2474 70.3091 16.6953C69.9966 17.1432 69.5825 17.5 69.0669 17.7656C68.5513 18.026 67.9809 18.1562 67.3559 18.1562C66.7101 18.1562 66.1476 18.0469 65.6684 17.8281C65.1893 17.6042 64.7908 17.2969 64.4731 16.9062C64.1554 16.5156 63.9158 16.0651 63.7544 15.5547C63.5981 15.0443 63.52 14.4974 63.52 13.9141V13.6406C63.52 13.0573 63.5981 12.5104 63.7544 12C63.9158 11.4844 64.1554 11.0312 64.4731 10.6406C64.7908 10.25 65.1893 9.94531 65.6684 9.72656C66.1476 9.5026 66.7075 9.39062 67.3481 9.39062C68.0252 9.39062 68.619 9.52604 69.1294 9.79688C69.6398 10.0625 70.0408 10.4349 70.3325 10.9141C70.6294 11.388 70.783 11.9401 70.7934 12.5703H69.02C69.0044 12.2578 68.9263 11.9766 68.7856 11.7266C68.6502 11.4714 68.4575 11.2682 68.2075 11.1172C67.9627 10.9661 67.6684 10.8906 67.3247 10.8906C66.9445 10.8906 66.6294 10.9688 66.3794 11.125C66.1294 11.276 65.9341 11.4844 65.7934 11.75C65.6528 12.0104 65.5513 12.3047 65.4888 12.6328C65.4315 12.9557 65.4028 13.2917 65.4028 13.6406V13.9141C65.4028 14.263 65.4315 14.6016 65.4888 14.9297C65.546 15.2578 65.645 15.5521 65.7856 15.8125C65.9315 16.0677 66.1294 16.2734 66.3794 16.4297C66.6294 16.5807 66.9471 16.6562 67.3325 16.6562ZM76.2853 18.1562C75.6603 18.1562 75.0952 18.0547 74.59 17.8516C74.09 17.6432 73.6629 17.3542 73.3088 16.9844C72.9598 16.6146 72.6916 16.1797 72.5041 15.6797C72.3166 15.1797 72.2228 14.6406 72.2228 14.0625V13.75C72.2228 13.0885 72.3192 12.4896 72.5119 11.9531C72.7046 11.4167 72.9728 10.9583 73.3166 10.5781C73.6603 10.1927 74.0666 9.89844 74.5353 9.69531C75.0041 9.49219 75.5119 9.39062 76.0588 9.39062C76.6629 9.39062 77.1916 9.49219 77.6447 9.69531C78.0978 9.89844 78.4728 10.1849 78.7697 10.5547C79.0718 10.9193 79.2957 11.3542 79.4416 11.8594C79.5926 12.3646 79.6681 12.9219 79.6681 13.5312V14.3359H73.1369V12.9844H77.8088V12.8359C77.7983 12.4974 77.7306 12.1797 77.6056 11.8828C77.4858 11.5859 77.3009 11.3464 77.0509 11.1641C76.8009 10.9818 76.4676 10.8906 76.0509 10.8906C75.7384 10.8906 75.4598 10.9583 75.215 11.0938C74.9754 11.224 74.7749 11.4141 74.6134 11.6641C74.452 11.9141 74.327 12.2161 74.2384 12.5703C74.1551 12.9193 74.1134 13.3125 74.1134 13.75V14.0625C74.1134 14.4323 74.1629 14.776 74.2619 15.0938C74.366 15.4062 74.5171 15.6797 74.715 15.9141C74.9129 16.1484 75.1525 16.3333 75.4338 16.4688C75.715 16.599 76.0353 16.6641 76.3947 16.6641C76.8478 16.6641 77.2515 16.5729 77.6056 16.3906C77.9598 16.2083 78.2671 15.9505 78.5275 15.6172L79.5197 16.5781C79.3374 16.8438 79.1004 17.099 78.8088 17.3438C78.5171 17.5833 78.1603 17.7786 77.7384 17.9297C77.3218 18.0807 76.8374 18.1562 76.2853 18.1562ZM83.3241 11.3516V18H81.4412V9.54688H83.2147L83.3241 11.3516ZM82.9881 13.4609L82.3787 13.4531C82.384 12.8542 82.4673 12.3047 82.6287 11.8047C82.7954 11.3047 83.0246 10.875 83.3162 10.5156C83.6131 10.1562 83.9673 9.88021 84.3787 9.6875C84.7902 9.48958 85.2485 9.39062 85.7537 9.39062C86.16 9.39062 86.5272 9.44792 86.8553 9.5625C87.1886 9.67188 87.4725 9.85156 87.7069 10.1016C87.9465 10.3516 88.1287 10.6771 88.2537 11.0781C88.3787 11.474 88.4412 11.9609 88.4412 12.5391V18H86.5506V12.5312C86.5506 12.125 86.4907 11.8047 86.3709 11.5703C86.2564 11.3307 86.0871 11.1615 85.8631 11.0625C85.6444 10.9583 85.3709 10.9062 85.0428 10.9062C84.7199 10.9062 84.4308 10.974 84.1756 11.1094C83.9204 11.2448 83.7043 11.4297 83.5272 11.6641C83.3553 11.8984 83.2225 12.1693 83.1287 12.4766C83.035 12.7839 82.9881 13.112 82.9881 13.4609ZM95.4487 16.3047V12.2734C95.4487 11.9714 95.3941 11.7109 95.2847 11.4922C95.1753 11.2734 95.0086 11.1042 94.7847 10.9844C94.5659 10.8646 94.2899 10.8047 93.9566 10.8047C93.6493 10.8047 93.3836 10.8568 93.1597 10.9609C92.9357 11.0651 92.7612 11.2057 92.6362 11.3828C92.5112 11.5599 92.4487 11.7604 92.4487 11.9844H90.5737C90.5737 11.651 90.6545 11.3281 90.8159 11.0156C90.9774 10.7031 91.2118 10.4245 91.5191 10.1797C91.8264 9.9349 92.1935 9.74219 92.6206 9.60156C93.0477 9.46094 93.5269 9.39062 94.0581 9.39062C94.6935 9.39062 95.256 9.4974 95.7456 9.71094C96.2404 9.92448 96.6284 10.2474 96.9097 10.6797C97.1961 11.1068 97.3394 11.6432 97.3394 12.2891V16.0469C97.3394 16.4323 97.3654 16.7786 97.4175 17.0859C97.4748 17.388 97.5555 17.651 97.6597 17.875V18H95.73C95.6415 17.7969 95.5711 17.5391 95.5191 17.2266C95.4722 16.9089 95.4487 16.6016 95.4487 16.3047ZM95.7222 12.8594L95.7378 14.0234H94.3862C94.0373 14.0234 93.73 14.0573 93.4644 14.125C93.1987 14.1875 92.9774 14.2812 92.8003 14.4062C92.6232 14.5312 92.4904 14.6823 92.4019 14.8594C92.3133 15.0365 92.2691 15.237 92.2691 15.4609C92.2691 15.6849 92.3211 15.8906 92.4253 16.0781C92.5295 16.2604 92.6805 16.4036 92.8784 16.5078C93.0816 16.612 93.3264 16.6641 93.6128 16.6641C93.9982 16.6641 94.3342 16.5859 94.6206 16.4297C94.9123 16.2682 95.1415 16.0729 95.3081 15.8438C95.4748 15.6094 95.5633 15.388 95.5737 15.1797L96.1831 16.0156C96.1206 16.2292 96.0139 16.4583 95.8628 16.7031C95.7118 16.9479 95.5139 17.1823 95.2691 17.4062C95.0295 17.625 94.7404 17.8047 94.4019 17.9453C94.0685 18.0859 93.6831 18.1562 93.2456 18.1562C92.6935 18.1562 92.2014 18.0469 91.7691 17.8281C91.3368 17.6042 90.9982 17.3047 90.7534 16.9297C90.5086 16.5495 90.3862 16.1198 90.3862 15.6406C90.3862 15.1927 90.4696 14.7969 90.6362 14.4531C90.8081 14.1042 91.0581 13.8125 91.3862 13.5781C91.7196 13.3438 92.1258 13.1667 92.605 13.0469C93.0842 12.9219 93.631 12.8594 94.2456 12.8594H95.7222ZM103.503 9.54688V10.9219H98.7375V9.54688H103.503ZM100.113 7.47656H101.995V15.6641C101.995 15.9245 102.032 16.125 102.105 16.2656C102.183 16.401 102.29 16.4922 102.425 16.5391C102.56 16.5859 102.719 16.6094 102.902 16.6094C103.032 16.6094 103.157 16.6016 103.277 16.5859C103.396 16.5703 103.493 16.5547 103.566 16.5391L103.573 17.9766C103.417 18.0234 103.235 18.0651 103.027 18.1016C102.823 18.138 102.589 18.1562 102.323 18.1562C101.891 18.1562 101.508 18.0807 101.175 17.9297C100.842 17.7734 100.581 17.5208 100.394 17.1719C100.206 16.8229 100.113 16.3594 100.113 15.7812V7.47656ZM104.729 13.8672V13.6875C104.729 13.0781 104.818 12.513 104.995 11.9922C105.172 11.4661 105.427 11.0104 105.761 10.625C106.099 10.2344 106.511 9.93229 106.995 9.71875C107.485 9.5 108.037 9.39062 108.651 9.39062C109.271 9.39062 109.823 9.5 110.307 9.71875C110.797 9.93229 111.211 10.2344 111.55 10.625C111.888 11.0104 112.146 11.4661 112.323 11.9922C112.5 12.513 112.589 13.0781 112.589 13.6875V13.8672C112.589 14.4766 112.5 15.0417 112.323 15.5625C112.146 16.0833 111.888 16.5391 111.55 16.9297C111.211 17.3151 110.8 17.6172 110.315 17.8359C109.831 18.0495 109.281 18.1562 108.667 18.1562C108.047 18.1562 107.492 18.0495 107.003 17.8359C106.518 17.6172 106.107 17.3151 105.768 16.9297C105.43 16.5391 105.172 16.0833 104.995 15.5625C104.818 15.0417 104.729 14.4766 104.729 13.8672ZM106.612 13.6875V13.8672C106.612 14.2474 106.651 14.6068 106.729 14.9453C106.807 15.2839 106.93 15.5807 107.097 15.8359C107.263 16.0911 107.477 16.2917 107.737 16.4375C107.998 16.5833 108.307 16.6562 108.667 16.6562C109.016 16.6562 109.318 16.5833 109.573 16.4375C109.834 16.2917 110.047 16.0911 110.214 15.8359C110.38 15.5807 110.503 15.2839 110.581 14.9453C110.664 14.6068 110.706 14.2474 110.706 13.8672V13.6875C110.706 13.3125 110.664 12.9583 110.581 12.625C110.503 12.2865 110.378 11.987 110.206 11.7266C110.039 11.4661 109.826 11.263 109.565 11.1172C109.31 10.9661 109.005 10.8906 108.651 10.8906C108.297 10.8906 107.99 10.9661 107.729 11.1172C107.474 11.263 107.263 11.4661 107.097 11.7266C106.93 11.987 106.807 12.2865 106.729 12.625C106.651 12.9583 106.612 13.3125 106.612 13.6875ZM116.378 11.1562V18H114.495V9.54688H116.292L116.378 11.1562ZM118.963 9.49219L118.948 11.2422C118.833 11.2214 118.708 11.2057 118.573 11.1953C118.443 11.1849 118.312 11.1797 118.182 11.1797C117.859 11.1797 117.575 11.2266 117.331 11.3203C117.086 11.4089 116.88 11.5391 116.713 11.7109C116.552 11.8776 116.427 12.0807 116.338 12.3203C116.25 12.5599 116.198 12.8281 116.182 13.125L115.753 13.1562C115.753 12.625 115.805 12.1328 115.909 11.6797C116.013 11.2266 116.169 10.8281 116.378 10.4844C116.591 10.1406 116.857 9.8724 117.174 9.67969C117.497 9.48698 117.87 9.39062 118.292 9.39062C118.406 9.39062 118.529 9.40104 118.659 9.42188C118.794 9.44271 118.896 9.46615 118.963 9.49219Z" fill="black"/>
</svg>
