<svg width="34" height="20" viewBox="0 0 34 20" fill="none" xmlns="http://www.w3.org/2000/svg">
<path fill-rule="evenodd" clip-rule="evenodd" d="M7.12581 7.00638L7.96602 5.90735C8.34691 5.40913 8.97328 5.17495 9.58058 5.30373C10.0508 5.40343 10.3525 5.8721 10.2545 6.35053C10.2464 6.39012 10.2357 6.42911 10.2224 6.46721C9.52435 8.4589 9.30214 9.7744 9.55574 10.4137C10.5997 9.1516 15.9332 0.921379 17.6188 0.530699C18.1816 0.400259 18.7418 0.75872 18.87 1.33136C18.9133 1.52509 18.9025 1.72732 18.8387 1.9151C17.2459 6.60107 16.5715 9.4345 16.8156 10.4155C17.6568 9.2111 18.9063 7.59014 20.5641 5.55254C21.1867 4.78717 22.1802 4.44418 23.132 4.66592C23.9691 4.8609 24.4923 5.70938 24.3008 6.56104C24.2995 6.56664 24.2983 6.57223 24.2968 6.57782C23.72 9.019 23.5062 10.4472 23.6554 10.8625C23.7212 10.8115 23.7881 10.7592 23.856 10.7056C24.6163 10.1051 25.5683 9.8125 26.5282 9.8842L33.9761 10.4402L29.0416 11.0112C27.6641 11.1706 26.4023 11.8719 25.5262 12.9653L24.3453 14.4389C23.9588 14.9213 23.3648 15.181 22.7548 15.1343C22.1487 15.0879 21.6476 14.6355 21.5302 14.0288C21.2418 12.5385 21.1956 10.7793 21.3917 8.7514C19.91 11.004 18.6244 14.2437 17.5349 18.4704C17.3476 19.1972 16.7021 19.7039 15.9637 19.7039C15.2585 19.7039 14.6809 19.134 14.6592 18.4168L14.3328 7.60905L11.1749 13.9412C10.8462 14.6001 10.1231 14.9518 9.41268 14.7981C8.66007 14.6352 8.03747 14.1 7.75393 13.3722L7.40008 12.4639C6.89937 11.1787 5.7693 10.2578 4.42732 10.0413C2.95155 9.8032 1.47577 9.5651 0 9.327L3.28722 9.0905C4.79948 8.9816 6.19501 8.224 7.12581 7.00638Z" fill="#2137FC"/>
</svg>
